<svg xmlns="http://www.w3.org/2000/svg" width="113" height="168" fill="none" viewBox="0 0 113 168">
  <path fill="#fff" d="M112.874 18.538c-.392-.716-2.302-1.367-4.097-.748-1.812.602-3.298 1.888-3.608 2.457-.31.57-.751 1.4-.995 1.351-.049 0-.066-.081-.082-.179l1.567-5.37c-.702-.229-1.208-.864-1.208-1.628a1.73 1.73 0 0 1 1.681-1.726L102.672.016l-3.46 12.68c.93.032 1.68.78 1.68 1.725a1.7 1.7 0 0 1-1.207 1.627l1.55 5.371c0 .114-.032.195-.081.195-.245.05-.686-.78-.996-1.35-.31-.57-1.796-1.856-3.608-2.458-1.812-.602-3.705.049-4.097.748-.392.717.196 1.693.865 1.53.67-.179.425-.83.425-.83 0 .505-.784.83-.963.098-.18-.732 1.763-1.742 2.726.13.963 1.856 1.975 1.481 2.954 1.351.98-.13 1.029.928.833 1.563-.196.618-1.567-.733-1.486.146.082.879 1.894 1.84 2.579 2.197.523.277.996.75 1.47 1.14v12.223h-8.62v-4.46l1.42-3.662c-.522-.13-.897-.488-.897-.911 0-.521.555-.944 1.257-.96l-2.58-7.097-2.578 7.096c.701 0 1.257.44 1.257.96 0 .424-.376.798-.898.912l1.42 3.662v4.476h-8.62v-4.427l1.437-3.695c-.522-.13-.897-.488-.897-.91 0-.522.555-.945 1.257-.961l-2.58-7.096-2.579 7.096c.702 0 1.257.44 1.257.96 0 .423-.375.798-.898.912l1.404 3.629v4.509H72.8V33.74l1.453-3.727c-.522-.13-.898-.489-.898-.912 0-.52.555-.944 1.257-.96l-2.579-7.096-2.58 7.096c.703 0 1.258.44 1.258.96 0 .424-.376.798-.898.912L71.2 33.61v4.54h-8.62v-4.377l1.453-3.76c-.522-.13-.897-.489-.897-.912 0-.52.555-.944 1.256-.96l-2.579-7.096-2.579 7.096c.702 0 1.257.44 1.257.96 0 .424-.375.798-.898.912l1.371 3.564v4.574h-8.618v-4.346l1.469-3.792c-.523-.13-.898-.489-.898-.912 0-.52.555-.944 1.257-.96l-2.58-7.096-2.578 7.096c.702 0 1.257.44 1.257.96 0 .424-.376.798-.898.912l1.37 3.532v4.59h-8.618V33.82l1.485-3.824c-.522-.13-.897-.489-.897-.912 0-.52.555-.944 1.256-.96l-2.579-7.096-2.579 7.096c.702 0 1.257.44 1.257.96 0 .423-.375.798-.898.912l1.355 3.499v4.622h-8.619v-4.28l1.502-3.841c-.522-.13-.898-.489-.898-.912 0-.52.555-.944 1.257-.96l-2.579-7.096-2.58 7.096c.703 0 1.258.44 1.258.96 0 .423-.376.798-.898.912l1.338 3.466v4.655H21.69V33.87l1.501-3.873c-.522-.13-.897-.489-.897-.912 0-.52.555-.944 1.256-.96l-2.579-7.096-2.579 7.096c.702 0 1.257.44 1.257.96 0 .423-.375.798-.898.912l1.339 3.434v4.687h-8.93V25.895c.474-.39.948-.863 1.47-1.14.685-.357 2.481-1.318 2.58-2.197.08-.878-1.29.472-1.486-.146-.196-.618-.147-1.693.832-1.563.98.13 1.992.521 2.955-1.35.963-1.856 2.905-.847 2.726-.13-.18.732-.963.406-.963-.098 0 0-.245.65.424.83.67.179 1.257-.814.865-1.53-.391-.716-2.301-1.367-4.097-.749-1.812.602-3.297 1.888-3.608 2.458-.31.57-.75 1.4-.995 1.35-.05 0-.066-.08-.082-.178l1.567-5.371c-.702-.228-1.208-.863-1.208-1.628 0-.944.751-1.693 1.682-1.725L10.345 0 6.884 12.679a1.73 1.73 0 0 1 1.681 1.725 1.7 1.7 0 0 1-1.208 1.628l1.551 5.37c0 .115-.033.196-.082.196-.244.049-.685-.781-.995-1.35-.31-.57-1.796-1.856-3.608-2.458-1.812-.603-3.705.048-4.097.748-.392.716.196 1.693.865 1.53.67-.179.425-.83.425-.83 0 .505-.784.83-.964.098-.18-.733 1.763-1.742 2.726.13.964 1.855 1.976 1.481 2.955 1.35.98-.13 1.028.929.833 1.563-.196.619-1.567-.732-1.486.147.082.879 1.894 1.839 2.58 2.197.522.277.995.749 1.468 1.14v12.223H5.203v1.627h4.342v122.542H5.203v1.627h4.342v2.49h-2.09a.807.807 0 0 0-.816.814c0 .456.36.814.816.814h5.714a.807.807 0 0 0 .816-.814.807.807 0 0 0-.816-.814h-1.992v-2.49h90.662v2.49h-2.04a.807.807 0 0 0-.816.814c0 .456.359.814.816.814h5.713a.807.807 0 0 0 .816-.814.807.807 0 0 0-.816-.814h-2.04v-2.49h4.293v-1.627h-4.293V39.697h4.293v-1.628h-4.293V25.846c.473-.39.946-.863 1.469-1.14.685-.357 2.481-1.317 2.579-2.196.081-.88-1.29.472-1.486-.147-.195-.618-.146-1.693.833-1.562.979.13 1.991.52 2.955-1.351.963-1.856 2.905-.847 2.726-.13-.18.732-.964.406-.964-.098 0 0-.244.65.425.83.669.179 1.257-.814.865-1.53v.016ZM91.588 39.697v122.558h-8.619v-46.37a6.348 6.348 0 0 0 1.55-.717c3.445-2.229 4.424-6.852 2.188-10.286a9.1 9.1 0 0 0-4.783-3.662 9.023 9.023 0 0 0 4.783-3.662c2.237-3.434 1.257-8.057-2.187-10.287a6.304 6.304 0 0 0-1.551-.7V39.698h8.619Zm-59.81 76.448c.424 0 .865-.049 1.29-.13a6.137 6.137 0 0 0 3.868-2.653c.735-1.14.996-2.49.702-3.809a4.994 4.994 0 0 0-2.204-3.19 4.228 4.228 0 0 0-5.844 1.237 3.46 3.46 0 0 0-.49 2.653 3.49 3.49 0 0 0 1.535 2.23c.67.439 1.47.586 2.253.423a2.976 2.976 0 0 0 1.893-1.286.814.814 0 0 0-1.37-.879c-.197.31-.507.521-.866.586-.36.082-.718 0-1.029-.195a1.931 1.931 0 0 1-.832-1.204 1.99 1.99 0 0 1 .261-1.433 2.607 2.607 0 0 1 3.575-.765 3.39 3.39 0 0 1 1.485 2.165 3.397 3.397 0 0 1-.473 2.572 4.425 4.425 0 0 1-2.84 1.936 4.476 4.476 0 0 1-3.38-.618 5.814 5.814 0 0 1-1.713-8.04c2.253-3.451 6.888-4.427 10.365-2.198.017 0 .05 0 .066.033.604.488 1.387.911 2.252 1.286v57.389h-8.619v-46.11h.115Zm10.153-37.32a6.218 6.218 0 0 0 2.35 2.896c2.335 1.514 5.486.847 7.02-1.48.62-.945.816-2.068.587-3.158a4.187 4.187 0 0 0-1.828-2.653c-1.632-1.058-3.836-.603-4.897 1.041a2.949 2.949 0 0 0-.424 2.246c.163.782.62 1.449 1.29 1.889a.82.82 0 0 0 1.126-.245.814.814 0 0 0-.245-1.123 1.347 1.347 0 0 1-.588-.862c-.082-.358 0-.716.196-1.026a1.935 1.935 0 0 1 1.208-.83c.506-.097 1.012 0 1.437.26.57.375.979.96 1.126 1.628.147.668 0 1.367-.36 1.937a3.452 3.452 0 0 1-4.75 1.01c-2.073-1.352-2.677-4.135-1.322-6.202a5.812 5.812 0 0 1 3.673-2.523 5.792 5.792 0 0 1 4.391.814c3.46 2.246 4.457 6.885 2.204 10.335 0 .017 0 .05-.033.065-1.844 2.279-2.775 6.918-3.167 9.522-.114.065-.212.163-.326.228-.18.114-.343.244-.522.374-.18.13-.343.277-.523.423a12.65 12.65 0 0 0-.49.456c-.146.146-.293.31-.44.472-.147.179-.294.342-.441.537-.13.163-.245.326-.36.505-.08.114-.162.211-.228.325-1.501.228-3.672.619-5.68 1.27V78.84l.016-.017Zm19.115-6.38c2.694-1.742 6.318-.977 8.064 1.708 1.355 2.067.767 4.867-1.322 6.201a3.452 3.452 0 0 1-4.75-1.009 2.533 2.533 0 0 1-.36-1.937 2.567 2.567 0 0 1 1.127-1.627c.424-.277.93-.375 1.436-.26.506.097.93.39 1.208.83.196.309.261.667.196 1.025a1.39 1.39 0 0 1-.587.862.814.814 0 0 0-.245 1.123.819.819 0 0 0 1.126.245 2.968 2.968 0 0 0 1.29-1.888 2.949 2.949 0 0 0-.425-2.247 3.558 3.558 0 0 0-4.897-1.041 4.188 4.188 0 0 0-1.828 2.653c-.229 1.106-.033 2.23.587 3.157 1.519 2.344 4.67 2.995 7.02 1.481 1.159-.748 1.958-1.839 2.4-3.043v18.261c-2.025-.65-4.212-1.058-5.73-1.285-.066-.114-.164-.212-.229-.326-.114-.179-.245-.342-.375-.52-.147-.18-.278-.359-.441-.522a12.495 12.495 0 0 0-.44-.472 6.042 6.042 0 0 0-.474-.44c-.163-.146-.343-.292-.523-.438-.163-.13-.342-.245-.522-.375-.114-.081-.212-.163-.31-.228-.392-2.62-1.306-7.242-3.167-9.521 0-.016 0-.049-.032-.065-2.253-3.45-1.258-8.09 2.203-10.335v.032Zm13.581 28.775c0 1.188-2.889 2.783-8.39 3.727.457-1.172.702-2.441.702-3.727s-.245-2.555-.702-3.727c5.485.96 8.39 2.539 8.39 3.727Zm-3.558 22.526a6.142 6.142 0 0 0-2.4-3.044 5.106 5.106 0 0 0-7.019 1.481c-1.273 1.937-.718 4.558 1.24 5.827.8.521 1.731.684 2.662.488a3.498 3.498 0 0 0 2.236-1.53c.44-.667.588-1.464.424-2.246a2.97 2.97 0 0 0-1.29-1.888.82.82 0 0 0-1.126.244.815.815 0 0 0 .245 1.124c.31.195.506.504.588.862.081.358 0 .716-.196 1.026a1.936 1.936 0 0 1-1.208.83 2.02 2.02 0 0 1-1.436-.261 2.59 2.59 0 0 1-.768-3.564 3.45 3.45 0 0 1 4.75-1.009c2.074 1.351 2.678 4.134 1.323 6.201a5.815 5.815 0 0 1-3.673 2.523 5.81 5.81 0 0 1-4.391-.814 7.466 7.466 0 0 1-3.249-4.72 7.335 7.335 0 0 1 1.045-5.615c0-.017 0-.049.033-.066 1.844-2.278 2.775-6.917 3.167-9.521.114-.065.212-.146.31-.228.18-.114.359-.244.522-.374.18-.147.36-.277.523-.44.163-.146.326-.293.473-.439.163-.163.31-.309.457-.488.147-.163.294-.342.424-.505.13-.163.261-.342.376-.521.065-.114.163-.195.228-.309 1.518-.228 3.706-.618 5.73-1.286v18.278-.016Zm-19.148 6.25a7.851 7.851 0 0 1-.816.423c-.049.016-.082.049-.13.065a5.783 5.783 0 0 1-3.445.326 5.814 5.814 0 0 1-3.673-2.523 4.469 4.469 0 0 1 1.322-6.201c1.584-1.026 3.722-.586 4.75 1.009a2.558 2.558 0 0 1-.767 3.564c-.424.277-.93.375-1.436.261a1.936 1.936 0 0 1-1.208-.83c-.196-.31-.261-.668-.196-1.026a1.39 1.39 0 0 1 .588-.862.815.815 0 0 0 .245-1.124.82.82 0 0 0-1.127-.244 2.97 2.97 0 0 0-1.29 1.888 2.948 2.948 0 0 0 .425 2.246 3.498 3.498 0 0 0 2.237 1.53c.93.196 1.877.017 2.66-.488 1.943-1.269 2.514-3.874 1.24-5.827-1.517-2.343-4.668-2.994-7.018-1.481a6.059 6.059 0 0 0-2.35 2.897v-18.115c2.007.651 4.178 1.042 5.68 1.27.065.114.147.211.228.309.114.179.245.358.376.521.13.179.277.342.424.521.147.162.294.325.457.472.147.146.31.293.474.439.163.147.342.293.522.44.163.13.343.26.522.374.115.065.212.163.31.228.392 2.62 1.306 7.243 3.167 9.521 0 .016 0 .049.033.065a7.336 7.336 0 0 1 1.045 5.615 7.461 7.461 0 0 1-3.249 4.72v.017Zm-3.085-33.17c.065-.098.13-.18.196-.277a9.594 9.594 0 0 1 1.126-1.449c.033-.032.05-.065.082-.097.13-.13.277-.228.408-.359.31-.276.637-.52.963-.748.147-.098.294-.212.457-.31a8.806 8.806 0 0 1 4.407-1.188c1.568 0 3.086.424 4.408 1.189.114.065.228.162.343.227.424.277.816.57 1.191.912.098.081.196.163.294.26.05.05.098.114.147.18a9.6 9.6 0 0 1 1.126 1.464c.033.065.082.114.131.18a8.757 8.757 0 0 1 1.192 4.41 8.694 8.694 0 0 1-1.192 4.394c-.114.196-.245.358-.36.538-.179.26-.375.52-.587.764a8.708 8.708 0 0 1-1.893 1.661c-.13.081-.245.179-.392.26a8.806 8.806 0 0 1-4.408 1.188 8.806 8.806 0 0 1-4.407-1.188c-.147-.081-.261-.179-.392-.26a8.61 8.61 0 0 1-1.142-.879c-.098-.082-.196-.163-.294-.261a2.61 2.61 0 0 1-.278-.325 8.753 8.753 0 0 1-.767-.977c-.114-.179-.245-.342-.359-.521a8.74 8.74 0 0 1-1.192-4.394c0-1.563.425-3.076 1.192-4.41v.015Zm7.64-13.689c1.191 0 2.79 2.881 3.738 8.366a10.37 10.37 0 0 0-3.739-.7c-1.29 0-2.562.245-3.738.7.963-5.469 2.547-8.366 3.738-8.366Zm0 36.198c-1.192 0-2.792-2.881-3.739-8.366 1.176.456 2.449.7 3.738.7 1.29 0 2.563-.244 3.739-.7-.963 5.469-2.547 8.366-3.739 8.366Zm-9.762-21.826a10.283 10.283 0 0 0-.702 3.727c0 1.286.245 2.556.702 3.727-5.485-.96-8.39-2.539-8.39-3.727 0-1.188 2.889-2.783 8.39-3.727Zm-4.783 30.615c.147.358.327.716.555 1.058 1.094 1.66 2.759 2.816 4.701 3.223a7.382 7.382 0 0 0 1.567.162 7.43 7.43 0 0 0 1.796-.244v29.948h-8.619v-34.163.016Zm10.251 3.581c.213-.114.425-.212.62-.342 1.78-1.156 3.037-2.865 3.673-4.867.637 1.986 1.894 3.711 3.673 4.867.213.13.441.244.653.358v30.55h-8.619v-30.583.017Zm10.252.634a7.051 7.051 0 0 0 1.763.228 7.38 7.38 0 0 0 1.567-.162 7.398 7.398 0 0 0 4.701-3.223c.245-.374.44-.781.588-1.188v34.293h-8.62v-29.948Zm10.251-27.457c.849-.358 1.6-.781 2.204-1.27.016 0 .049 0 .065-.032 3.46-2.246 8.113-1.253 10.366 2.197a5.814 5.814 0 0 1-1.714 8.04 4.42 4.42 0 0 1-3.38.619 4.486 4.486 0 0 1-2.84-1.937 3.325 3.325 0 0 1-.473-2.571 3.446 3.446 0 0 1 1.485-2.165c1.192-.765 2.808-.44 3.575.765a1.911 1.911 0 0 1-.555 2.637 1.355 1.355 0 0 1-1.877-.407.814.814 0 0 0-1.371.878 3.005 3.005 0 0 0 4.146.879c1.632-1.058 2.106-3.255 1.045-4.882-1.273-1.937-3.885-2.507-5.828-1.237-1.142.732-1.91 1.871-2.204 3.19a5.055 5.055 0 0 0 .702 3.808 6.137 6.137 0 0 0 3.87 2.653c.424.098.864.13 1.289.13h.147v46.11h-8.62v-57.405h-.032Zm8.619-65.153v46.582c-.474 0-.947 0-1.437.114A6.136 6.136 0 0 0 76 89.078a5.072 5.072 0 0 0 1.485 6.999c1.959 1.27 4.57.716 5.828-1.237a3.52 3.52 0 0 0-1.045-4.883 3.006 3.006 0 0 0-4.146.879.814.814 0 0 0 1.371.879 1.356 1.356 0 0 1 1.877-.407c.425.277.719.7.833 1.204.098.505 0 1.01-.261 1.433a2.607 2.607 0 0 1-3.575.765 3.43 3.43 0 0 1-1.012-4.737 4.427 4.427 0 0 1 2.84-1.937c1.175-.244 2.383-.032 3.379.635a5.814 5.814 0 0 1 1.714 8.04c-2.253 3.451-6.905 4.428-10.366 2.198-.016 0-.049 0-.065-.033-.604-.488-1.355-.895-2.204-1.27V39.698h8.62l.032.032Zm-10.251 0v34.75a5.752 5.752 0 0 0-.588-1.189c-1.78-2.718-5.028-3.873-8.031-3.14V39.696h8.619v.032Zm-10.252 0v31.039c-.228.114-.44.195-.653.341-1.828 1.189-3.052 2.946-3.673 4.867-.62-1.937-1.844-3.678-3.672-4.867-.196-.13-.425-.211-.62-.325V39.697H60.8v.032Zm-10.251 0v30.42c-3.004-.749-6.285.39-8.08 3.125-.229.342-.408.7-.555 1.058V39.697h8.619l.016.032Zm-10.251 0v57.796c-.865.375-1.649.798-2.253 1.286-.016 0-.049 0-.065.033-3.46 2.246-8.113 1.253-10.366-2.198a5.814 5.814 0 0 1 1.714-8.04c2.073-1.35 4.88-.749 6.22 1.318a3.415 3.415 0 0 1-1.013 4.737 2.575 2.575 0 0 1-3.575-.765 1.841 1.841 0 0 1-.26-1.433 1.81 1.81 0 0 1 .832-1.204c.31-.195.67-.26 1.028-.195.36.081.653.276.865.586a.814.814 0 0 0 1.371-.879 2.977 2.977 0 0 0-1.893-1.286 2.972 2.972 0 0 0-2.253.423 3.49 3.49 0 0 0-1.534 2.23 3.519 3.519 0 0 0 .49 2.653c1.273 1.937 3.885 2.506 5.843 1.237 2.351-1.514 3.004-4.655 1.486-6.999-1.192-1.823-3.216-2.8-5.256-2.767V39.697h8.619v.032Zm-10.252 0v46.843c-.555.162-1.093.374-1.6.7-3.444 2.23-4.423 6.852-2.187 10.286 1.16 1.774 2.873 3.027 4.881 3.662-1.991.635-3.722 1.888-4.88 3.662-2.237 3.434-1.258 8.057 2.187 10.286a6.14 6.14 0 0 0 1.6.733v46.354h-8.62V39.697h8.62v.032Zm-18.886 0h8.619v122.526h-8.62V39.697v.032Zm90.678 122.526H93.22V39.697h8.619v122.558Z"/>
</svg>
