<svg xmlns="http://www.w3.org/2000/svg" width="171" height="168" fill="none" viewBox="0 0 171 168">
  <path fill="#fff" d="M171 80.317V45.975a.92.92 0 0 0-.138-.455c0-.357-.031-.73-.077-1.087-.43-3.65-2.182-6.91-4.916-9.182a12.675 12.675 0 0 0-4.64-2.45c.646-.859 1.091-2.579 2.735-2.465.507.033.845.179 1.06.373a.73.73 0 0 0-.399.13c-.431.292-.553.892-.277 1.346.277.455.845.584 1.275.292.154-.097.246-.243.323-.405.03-.065.061-.13.092-.211a1.103 1.103 0 0 0 0-.503c-.169-.973-1.536-1.947-2.566-1.638 0 0 2.274-.665 2.827-.325.553.34.553-.714-.492-.811-1.044-.097-2.258.406-2.673.681 0 0 1.414-.827 2.274-1.833-1.214.39-2.535 1.395-2.535 1.395.415-.275 1.367-1.216 1.721-2.27.369-1.039-.538-1.477-.492-.812.062.665-1.49 2.563-1.49 2.563.707-.843.446-2.563-.323-3.13a.976.976 0 0 0-.43-.195h-.215a.814.814 0 0 0-.476.13c-.43.291-.553.892-.277 1.346.277.454.845.584 1.276.292a.961.961 0 0 0 .291-.325c.077.292.047.666-.138 1.168-.66 1.801-2.642 1.217-3.595 1.671a.816.816 0 0 0-.445.617c-2.704-2.515-7.405-4.478-12.951-3.472-2.135.39-4.009.13-5.791-.422.46.033.921.05 1.382.05 4.194 0 8.388-1.218 9.878-5.225 1.321-3.536-.169-7.575-3.303-9.003a4.485 4.485 0 0 0-3.763 0c-1.306.584-2.366 1.752-2.889 3.212-.875 2.417.139 5.159 2.259 6.132.891.406 1.859.39 2.673-.016.384-.195.537-.682.368-1.087-.184-.406-.645-.584-1.029-.39-.43.211-.922.211-1.413 0-1.383-.632-2.028-2.449-1.429-4.055.384-1.07 1.122-1.882 2.059-2.304a3.079 3.079 0 0 1 2.565 0c2.381 1.087 3.488 4.186 2.474 6.911-2.197 5.921-12.936 4.3-17.037 2.628-.077-.032-.154-.032-.231-.048-1.475-.584-3.011-1.022-4.67-1.104 0 0 .031-.016.046-.032 1.214-.844 2.443-2.547 3.549-2.612 1.106-.065 1.966-1.476 2.55-1.476.614 0 .276 1.054.676.535.399-.535.63-1.508-.154-1.995-.783-.487-1.751.519-2.258.227-.507-.292.553-2.255.476-3.536-.092-1.282-.645-3.148-2.427-3.845-1.782-.698-3.103.454-4.163 1.022-1.06.568-1.859-.308-1.506.47.354.763 1.014 2.044 2.412 2.563 1.398.503 2.427-1.216 2.827-.68.384.518.077 1.135.077 1.135-1.521-.568-2.351 1.103-1.875 1.07.784-.048 1.383 1.72.999 2.92s-2.105 2.369-5.039 3.358c-1.029.341-1.859.974-2.535 1.655.016-.049.046-.081.062-.13a11.875 11.875 0 0 0 .307-8.63c-.999-2.823-2.965-5.078-5.561-6.327-3.426-1.654-7.359-.746-9.863 1.963-.184-2.482-1.306-5.223-4.563-6.424-2.78-1.022-4.731.114-6.62 1.233-1.353.795-2.628 1.541-4.256 1.541-3.488 0-4.317-4.867-4.348-5.061V.616c0-.032-.015-.064-.03-.097 0-.049-.031-.081-.062-.13a.126.126 0 0 0-.03-.065.123.123 0 0 0-.062-.064.703.703 0 0 0-.108-.098c-.015 0-.03-.032-.046-.048A.114.114 0 0 0 85.83.08c-.046-.016-.076-.032-.123-.049-.03 0-.046-.016-.076-.032h-.277a.21.21 0 0 0-.092.032c-.046 0-.077.033-.123.05-.03 0-.046.015-.077.032-.015 0-.03.032-.061.048a82.53 82.53 0 0 1-.154.162.126.126 0 0 1-.03.065c-.016.049-.031.081-.047.13 0 .033-.015.065-.03.097V.65c-.031.21-.86 5.061-4.348 5.061-1.629 0-2.903-.746-4.255-1.54-1.89-1.104-3.841-2.256-6.622-1.234-3.257 1.2-4.378 3.942-4.562 6.424-2.49-2.709-6.422-3.617-9.863-1.963-2.596 1.25-4.578 3.505-5.561 6.327a11.72 11.72 0 0 0 .307 8.63c.015.05.046.082.061.13-.66-.665-1.505-1.297-2.534-1.654-2.935-.99-4.655-2.142-5.04-3.358-.383-1.2.216-2.97 1-2.92.475.032-.339-1.639-1.875-1.071 0 0-.307-.617.077-1.136.384-.519 1.429 1.2 2.827.682 1.398-.503 2.043-1.785 2.412-2.563.353-.763-.446.113-1.506-.471-1.06-.568-2.397-1.72-4.163-1.022-1.782.698-2.335 2.563-2.428 3.845-.092 1.281.984 3.244.477 3.536-.507.292-1.49-.713-2.259-.227-.798.487-.568 1.476-.153 1.995.4.536.061-.535.676-.535.584 0 1.444 1.412 2.55 1.476 1.106.065 2.335 1.769 3.549 2.612 0 0 .03.017.046.033-1.675.097-3.211.535-4.67 1.103-.077 0-.154 0-.23.049-4.103 1.67-14.841 3.276-17.038-2.629-1.014-2.725.092-5.823 2.473-6.91a3.08 3.08 0 0 1 2.566 0c.937.421 1.66 1.233 2.058 2.303.584 1.606-.06 3.423-1.428 4.056-.476.21-.983.21-1.413 0a.75.75 0 0 0-1.03.373.838.838 0 0 0 .369 1.087c.814.422 1.797.422 2.673.016 2.12-.973 3.134-3.715 2.258-6.132-.537-1.46-1.582-2.628-2.888-3.212a4.548 4.548 0 0 0-3.764 0c-3.134 1.428-4.608 5.467-3.303 9.003 1.49 4.024 5.684 5.224 9.878 5.224.461 0 .922 0 1.383-.049-1.782.552-3.64.811-5.792.422-5.546-1.006-10.246.957-12.95 3.472-.046-.26-.17-.487-.446-.617-.952-.454-2.934.13-3.595-1.67-.184-.503-.2-.893-.138-1.169.077.13.17.244.292.325a.892.892 0 0 0 1.275-.292c.277-.454.154-1.055-.276-1.347a.848.848 0 0 0-.477-.13h-.215a.91.91 0 0 0-.43.195c-.768.584-1.03 2.288-.322 3.131 0 0-1.537-1.898-1.475-2.563.061-.665-.845-.227-.492.811.369 1.038 1.306 1.98 1.72 2.271 0 0-1.32-1.005-2.534-1.395.845 1.006 2.274 1.833 2.274 1.833-.415-.275-1.629-.778-2.673-.681-1.045.097-1.045 1.152-.492.811.553-.34 2.827.325 2.827.325-1.03-.325-2.382.649-2.566 1.638a1.41 1.41 0 0 0 0 .503.515.515 0 0 0 .092.21c.077.163.17.31.323.406.43.292.998.163 1.275-.292.276-.454.154-1.054-.277-1.346a.733.733 0 0 0-.399-.13c.215-.194.553-.324 1.06-.373 1.644-.113 2.09 1.606 2.735 2.466a12.8 12.8 0 0 0-4.64 2.45C2.381 37.521.63 40.766.215 44.432c-.046.373-.061.73-.077 1.087a.873.873 0 0 0-.138.454v121.2s.015.081.015.113v.13l.016.016a.81.81 0 0 0 .246.357c.03.016.046.033.076.049.123.081.246.146.4.146h15.685s.246.016.568.016c.185 0 .415 0 .66-.016h135.607c.261 0 .476.016.66.016.308 0 .492 0 .569-.016h15.716a.674.674 0 0 0 .399-.146c.031-.016.046-.033.077-.049a.826.826 0 0 0 .246-.357l.015-.016v-.13c0-.032.015-.081.015-.113V80.317h.03Zm-6.007 64.728c0 1.412.016 2.774-.184 4.007-.307-3.488-1.321-6.878-3.073-9.977a23.758 23.758 0 0 0-2.519-3.634c.83-.827 1.843-1.281 2.427-.843.599.454.876-2.433-1.582-3.05 0 0 .092-1.054 1.014-1.395.922-.341.906 2.806 3.134 3.374 2.227.568 4.102-.519 5.192-1.2h.016c-.123 1.541-.584 2.141-1.414 3.179a20.195 20.195 0 0 0-1.951 2.823c-1.09 1.914-1.075 4.348-1.06 6.716Zm.292 15.979a2.475 2.475 0 0 0 1.675 1.233c.891.179 1.797-.097 2.504-.665v4.396c-2.09-1.038-6.161-3.666-5.439-7.008.4-1.833 2.028-3.05 3.657-2.725.537.113.998.438 1.29.925.338.551.446 1.265.292 1.946-.23 1.022-1.121 1.704-2.012 1.525-.292-.065-.523-.227-.646-.454-.215-.389-.691-.519-1.044-.292a.829.829 0 0 0-.277 1.103v.016Zm-11.875 5.354c-1.552-.081-4.655-.536-7.942-2.693-4.225-2.774-7.467-1.282-10.908.292-1.198.551-2.489 1.135-3.902 1.59.046-.033.092-.049.123-.065 1.506-1.055 1.429-2.791 1.613-3.991.184-1.2 1.275-1.346.507-1.492-.768-.146-2.059-.357-3.226.486-1.152.844-.492 2.693-1.091 2.709-.599 0-.876-.584-.876-.584 1.276-.924.523-2.563.277-2.141-.415.665-2.028.146-2.688-.876-.661-1.022-.538-3.082.414-6.051.277-.876.323-1.736.277-2.547a15.586 15.586 0 0 0 1.275 2.904c2.012 3.585 5.239 6.116 9.064 7.138 1.413.373 2.827.454 4.194.308h.138a11.668 11.668 0 0 0 6.637-3.18c-.077 1.801.537 3.618 1.874 4.932 1.997 1.947 5.131 1.817 6.974-.276 1.537-1.752 1.445-4.493-.215-6.116a3.403 3.403 0 0 0-2.458-.973c-.921.032-1.766.454-2.396 1.152-1.091 1.233-1.014 3.179.153 4.331.492.471 1.107.73 1.783.698a2.447 2.447 0 0 0 1.72-.828.8.8 0 0 0 .154-.794c0-.049.03-.082.046-.13.107-.763-.4-1.46-1.106-1.574-.722-.113-1.383.422-1.49 1.168 0 .114 0 .211.015.325-.031-.017-.046-.033-.077-.049-.553-.535-.584-1.46-.077-2.044a1.826 1.826 0 0 1 1.321-.633c.492-.032.984.163 1.368.536 1.044 1.022 1.106 2.725.138 3.828-1.275 1.444-3.426 1.541-4.808.195-1.798-1.752-1.905-4.737-.246-6.619 2.15-2.45 5.791-2.596 8.111-.324 3.027 2.968 2.504 8.387.031 11.469h-4.732l.031-.081Zm-30.618 0s-5.085-.049-7.742-.6c-3.103-.649-5.485-2.061-7.159-4.105a8.238 8.238 0 0 0 4.363 1.266 8.39 8.39 0 0 0 2.335-.341c1.982-.584 3.794-1.833 5.346-3.683 1.844-2.19 3.902-5.71 5.392-9.733.062.99-.061 1.849-.445 2.677-.599 1.265-1.921 2.871-1.982 4.363-.077 1.477.461 3.456-.108 4.397-.568.941-.03 2.449-.368 2.936-.354.503-.922-.389-.768.243.153.633.737 1.396 1.551 1.022.784-.356.615-1.735 1.122-1.979.507-.243 1.321 1.769 2.304 2.434.569.389 1.367.746 2.228.778a15.23 15.23 0 0 1-3.288.325h-2.781Zm-27.606 0c.307-.13.6-.276.876-.438 2.796-1.623 3.917-5.191 2.704-8.241a8.434 8.434 0 0 1 1.705 1.93c.875 1.412 1.613 3.715.384 6.733h-5.684l.015.016Zm-25.118 0c-1.229-3.018-.491-5.321.384-6.733.492-.794 1.091-1.411 1.706-1.93-1.214 3.034-.093 6.619 2.704 8.241.291.162.583.308.875.438h-5.684l.015-.016Zm-24.672 0a14.012 14.012 0 0 1-3.364-.325c.89-.032 1.72-.389 2.289-.795.983-.665 1.797-2.676 2.304-2.433.507.243.323 1.622 1.122 1.979.814.373 1.382-.389 1.551-1.022.154-.633-.43.26-.768-.243-.322-.487.2-1.996-.369-2.936-.568-.941-.03-2.92-.107-4.397-.077-1.476-1.398-3.098-1.982-4.364-.384-.811-.507-1.687-.445-2.676 1.49 4.039 3.548 7.559 5.392 9.733 1.567 1.85 3.364 3.099 5.346 3.683.783.227 1.567.34 2.335.34 1.552 0 3.042-.47 4.363-1.265-1.674 2.06-4.056 3.472-7.159 4.104-2.658.552-7.697.601-7.743.601h-2.75l-.015.016Zm-32.584 0c-2.473-3.083-2.995-8.501.031-11.47 2.32-2.271 5.96-2.125 8.111.325 1.66 1.898 1.552 4.867-.245 6.619-1.368 1.346-3.534 1.265-4.809-.195-.968-1.087-.906-2.806.138-3.828.37-.357.892-.584 1.368-.536a1.82 1.82 0 0 1 1.32.633 1.514 1.514 0 0 1-.076 2.044c-.015.016-.046.032-.077.049 0-.114.031-.211.016-.325-.108-.762-.768-1.281-1.49-1.168-.723.114-1.214.811-1.107 1.574 0 .048.031.081.046.129-.076.276-.046.584.154.795a2.33 2.33 0 0 0 1.72.828c.661.032 1.291-.227 1.783-.698 1.167-1.152 1.244-3.082.153-4.331-.63-.714-1.474-1.12-2.396-1.152a3.36 3.36 0 0 0-2.458.957c-1.66 1.622-1.752 4.364-.215 6.116 1.843 2.109 4.977 2.239 6.974.276 1.337-1.314 1.951-3.131 1.875-4.932a11.674 11.674 0 0 0 6.636 3.18h.138c1.368.162 2.781.081 4.194-.309 3.826-1.022 7.036-3.552 9.064-7.137a15.6 15.6 0 0 0 1.275-2.904c-.046.811 0 1.687.277 2.547.952 2.968 1.075 5.045.415 6.051-.661 1.022-2.274 1.541-2.689.876-.246-.406-.998 1.233.277 2.141 0 0-.277.6-.876.584-.6-.016.062-1.849-1.09-2.709-1.153-.844-2.459-.633-3.227-.487-.768.146.323.292.507 1.493.184 1.2.108 2.952 1.613 3.99.062.049.139.065.2.114-1.444-.47-2.75-1.071-3.979-1.622-3.441-1.574-6.683-3.066-10.907-.292-3.334 2.19-6.499 2.612-8.02 2.693h-4.654l.03.081ZM1.49 161.592c.707.568 1.613.844 2.504.649a2.536 2.536 0 0 0 1.675-1.217.825.825 0 0 0-.277-1.103.734.734 0 0 0-1.044.292c-.123.227-.354.39-.646.454-.89.195-1.797-.502-2.012-1.524-.154-.682-.046-1.396.292-1.947.307-.487.768-.828 1.29-.925 1.613-.324 3.257.892 3.656 2.726.723 3.341-3.349 5.986-5.438 7.008v-4.413Zm4.47-16.547c.016-2.368.047-4.802-1.06-6.716-.752-1.314-1.413-2.141-1.95-2.823-.845-1.054-1.29-1.638-1.414-3.179h.016c1.09.681 2.965 1.768 5.192 1.2 2.228-.568 2.212-3.715 3.134-3.374.922.341 1.014 1.395 1.014 1.395-2.458.617-2.181 3.504-1.582 3.05.583-.438 1.597 0 2.427.843a23.775 23.775 0 0 0-2.52 3.634c-1.75 3.099-2.765 6.489-3.072 9.977-.2-1.233-.2-2.595-.184-4.007Zm.876-90.619c.384-.519.615-1.168.538-1.768 0 0 .138 1.087.123 2.077a8.333 8.333 0 0 1-.66-.309Zm1.091-2.092s.63 1.735 1.536 2.936c-.384-.049-.768-.162-1.137-.276.062-1.087-.2-2.222-.399-2.676v.016Zm1.598 2.952c-.246-1.525-1.076-3.212-1.076-3.212.23.552 1.106 1.85 2.182 2.466 1.075.616 1.705-.422.968-.454-.738-.049-2.55-2.223-2.55-2.223.798 1.006 2.719.974 3.471.13.154-.162.246-.34.292-.503a.844.844 0 0 0 .046-.26 1.15 1.15 0 0 0-.061-.6c-.246-.567-.876-.827-1.429-.567-.537.26-.783.924-.537 1.508a1.3 1.3 0 0 0 .307.406c-.323.032-.738-.049-1.26-.357-1.859-1.103-.89-3.407-1.229-4.64-.107-.389-.384-.584-.707-.665v-.097a4.507 4.507 0 0 1 1.613-3.001 4.071 4.071 0 0 1 3.15-.925c1.367.178 2.596.892 3.487 1.995.184.244.338.47.492.714.676 1.136.983 2.45.814 3.796-.23 1.98-1.183 3.764-2.673 4.98-1.49 1.233-3.35 1.769-5.223 1.525h-.047l-.03-.016Zm9.909-5.661c.245-1.996-.338-3.943-1.736-5.922-.047-.065-.077-.146-.139-.21-.046-.065-.107-.114-.153-.179-.046-.065-.092-.13-.154-.195a.853.853 0 0 0-.138-.113c-1.122-1.266-2.596-2.093-4.256-2.32-1.536-.21-3.057.243-4.27 1.25a6.16 6.16 0 0 0-2.182 4.07c-.03.26-.03.52-.015.763-.138.146-.261.309-.307.487-.876-.438-2.566.763-1.905 1.833.645 1.087 2.918 1.85 2.473 4.056a2.5 2.5 0 0 1-.415 1.006 2.196 2.196 0 0 1-.23-.179c0-.032 0-.065-.016-.097a1.062 1.062 0 0 0-1.014-.665 9.153 9.153 0 0 1-1.413-1.51 9.727 9.727 0 0 1-1.628-3.52c-.784-5.775 2.488-8.971 3.948-10.09 2.458-1.882 5.53-2.434 7.65-1.33 2.044 1.054 2.412 2.14 2.888 3.503.477 1.363 1.014 2.92 3.211 4.413 1.245.843 2.504 1.2 3.61 1.54 2.35.698 3.78 1.12 3.995 5.095-.507 3.974-2.212 6.765-4.548 9.02-1.305-.812-2.657-.358-3.687-.244-1.167.13-1.659-1.006-1.551-.146.107.86.353 2.304 1.49 3.326-1.29.86-2.658 1.67-4.04 2.498-5.055 3.001-10.585 6.31-13.274 12.93.384-4.219 2.013-12.379 8.742-17.489 5.776-4.396 8.664-8.062 9.094-11.566l-.03-.016ZM14.533 34.05c3.241.422 6.191 1.947 8.465 4.348.076.373.169.73.292 1.054.368 1.022 1.459 1.882 2.335 2.677a15.82 15.82 0 0 1 1.428 4.218c-.952-.974-2.197-1.347-3.425-1.704-1.06-.308-2.151-.632-3.196-1.346-1.767-1.184-2.166-2.352-2.596-3.602-.507-1.443-1.06-3.066-3.656-4.396-1.583-.811-3.503-.925-5.423-.422a10.83 10.83 0 0 1 5.776-.827Zm10.047 1.574c.323-1.12 1.66-2.11 2.228-1.623.353.292.583-1.427-.86-1.865 0 0 .076-.633.645-.811.552-.179.46 1.703 1.766 2.108.446.147.86.163 1.244.114-.583 2.644.385 5.516 2.627 7.138a5.034 5.034 0 0 0 3.964.876c1.383-.276 2.596-1.12 3.395-2.352 1.367-2.11.845-4.997-1.152-6.44a3.477 3.477 0 0 0-2.75-.6 3.619 3.619 0 0 0-2.35 1.621c-.953 1.477-.6 3.52.814 4.527.092.064.184.097.276.13.246.13.507.21.784.21.983 0 1.767-.86 1.767-1.898 0-1.038-.815-1.865-1.798-1.865-.261 0-.507.08-.737.194.046-.13.077-.26.153-.373a2.082 2.082 0 0 1 1.368-.94c.568-.114 1.121 0 1.597.356 1.306.941 1.644 2.807.753 4.186a3.773 3.773 0 0 1-2.412 1.67 3.55 3.55 0 0 1-2.811-.616c-2.013-1.444-2.658-4.202-1.66-6.457h.031c.262-.146.246-.21.123-.275.077-.146.139-.292.215-.422.953-1.476 2.382-2.466 4.04-2.79 1.644-.341 3.334.032 4.717 1.038 1.66 1.2 2.796 2.985 3.272 5.029.062 1.103.185 1.947.246 2.32a8.685 8.685 0 0 1-1.383 4.493c-1.551 2.401-3.886 4.023-6.575 4.559-2.688.551-5.438-.065-7.696-1.687 0 0-.031 0-.046-.017a17.134 17.134 0 0 0-2.873-6.197c-.123-.162-.261-.308-.384-.47-.553-1.184-.738-2.125-.553-2.823l.015-.048Zm22.43-8.42c.844-1.168 1.981-1.85 3.44-2.109.968.47 1.89.957 2.689 1.395 1.52 1.152 3.38 2.012 5.454 2.45.66.146 1.336.227 1.997.276a6.759 6.759 0 0 0-2.12 2.482 7.294 7.294 0 0 0-.446 5.305c.184.632.461 1.232.784 1.784 0 .13.046.26.123.373 1.152 1.768 1.597 3.602 1.382 5.321h-.092v.6a6.556 6.556 0 0 1-1.429 2.855c-1.89 2.223-5.438 3.553-8.572 1.785-2.857-1.606-4.286-4.64-3.825-8.111.2-1.46.722-2.774 1.428-3.748.507.714 1.49 1.184 2.059.47.83-1.038.845-3.714 3.088-3.941.63-.065 1.075.032 1.367.227a1.09 1.09 0 0 0-.46.26c-.477.437-.508 1.2-.093 1.703.415.503 1.137.535 1.613.097.17-.146.261-.357.307-.552.031-.08.047-.162.062-.275v-.016a1.55 1.55 0 0 0-.077-.617c-.4-1.152-2.227-2.06-3.426-1.444 0 0 2.643-1.298 3.38-1.006.737.292.553-.99-.753-.876-1.29.098-2.673.974-3.118 1.395 0 0 1.567-1.313 2.412-2.709-1.414.73-2.827 2.24-2.827 2.24.445-.423 1.429-1.77 1.674-3.116.246-1.346-.937-1.687-.752-.876.2.811-1.322 3.44-1.322 3.44.707-1.185.062-3.213-.983-3.748a1.175 1.175 0 0 0-.568-.146h-.016c-.092 0-.184 0-.26.033-.2.032-.4.113-.554.26-.476.437-.507 1.2-.092 1.703.415.502 1.137.535 1.613.097.138-.13.23-.292.292-.454.138.34.184.81.061 1.46-.46 2.336-2.98 2.044-4.055 2.79-.83.584-.338 1.85.414 2.385a9.084 9.084 0 0 0-1.152 1.946.21.21 0 0 0-.092.033l.046-.584a.527.527 0 0 0 0-.309c.016-.86-.061-1.72-.245-2.546-.108-2.32.046-5.727 1.643-7.95v-.032Zm21.138-9.198c.184-1.525 1.49-9.182 8.327-9.847 4.055-.39 6.175 1.655 7.235 3.455-.445-.438-.921-.843-1.49-1.152-3.994-2.157-8.895-.502-10.938 3.715-1.444 2.985-1.244 6.44.261 9.442a15.874 15.874 0 0 1-2.504 1.93c-.968-3.098-.983-6.732-.89-7.527v-.016ZM94.464 8.16c6.852.649 8.142 8.322 8.327 9.847.092.795.076 4.429-.892 7.527a14.996 14.996 0 0 1-2.504-1.93c1.506-3.002 1.721-6.457.261-9.442-2.043-4.201-6.959-5.872-10.938-3.715a6.404 6.404 0 0 0-1.505 1.168c1.06-1.8 3.18-3.844 7.251-3.455ZM117.8 26.49a54.493 54.493 0 0 1 2.688-1.395c1.46.26 2.612.941 3.441 2.11 1.598 2.222 1.752 5.628 1.644 7.948a10.084 10.084 0 0 0-.246 2.53c-.015.114 0 .212.016.325 0 .195.015.39.046.584-.031-.016-.062-.016-.092-.032a9.082 9.082 0 0 0-1.153-1.947c.738-.535 1.229-1.817.4-2.385-1.076-.746-3.595-.47-4.056-2.79-.138-.649-.077-1.12.062-1.46.061.162.153.325.291.454.477.438 1.199.406 1.613-.097.415-.503.385-1.265-.092-1.703a1.094 1.094 0 0 0-.553-.26 1.288 1.288 0 0 0-.261-.032h-.015c-.169 0-.354.048-.569.146-1.044.551-1.69 2.579-.983 3.747 0 0-1.505-2.628-1.321-3.44.2-.81-.983-.47-.753.877.246 1.346 1.214 2.693 1.675 3.115 0 0-1.414-1.51-2.827-2.24.845 1.396 2.412 2.71 2.412 2.71-.446-.422-1.828-1.298-3.119-1.395-1.29-.097-1.49 1.168-.752.876.737-.292 3.379 1.006 3.379 1.006-1.198-.617-3.026.292-3.426 1.444a1.514 1.514 0 0 0-.076.616v.016c0 .098.03.195.061.276.062.21.154.406.307.552.477.438 1.199.405 1.613-.098.415-.503.385-1.265-.092-1.703a1.102 1.102 0 0 0-.461-.26c.292-.178.738-.292 1.368-.227 2.243.227 2.258 2.904 3.088 3.942.583.73 1.551.244 2.058-.47.691.973 1.229 2.287 1.429 3.747.476 3.472-.953 6.49-3.825 8.111-3.134 1.769-6.683.438-8.573-1.784a6.721 6.721 0 0 1-1.428-2.855v-.6h-.093c-.215-1.72.231-3.553 1.383-5.321a.816.816 0 0 0 .123-.373 9.092 9.092 0 0 0 .783-1.785c.876-2.985-.261-6.1-2.581-7.787.676-.048 1.337-.13 2.013-.276 2.074-.438 3.933-1.281 5.454-2.45v.033Zm12.566 3.926a6.004 6.004 0 0 1 4.716-1.038c1.66.324 3.088 1.33 4.041 2.79.092.13.138.292.215.422-.123.081-.123.13.123.276h.031c.998 2.255.353 5.013-1.66 6.456-.829.6-1.828.811-2.811.617-.983-.195-1.843-.795-2.412-1.671-.891-1.38-.553-3.245.753-4.186a2.08 2.08 0 0 1 1.598-.356 2.18 2.18 0 0 1 1.367.94c.077.114.107.244.153.374a1.916 1.916 0 0 0-.737-.195c-.983 0-1.782.827-1.797 1.866 0 1.038.783 1.881 1.766 1.897.292 0 .553-.08.784-.21a.619.619 0 0 0 .276-.13c1.414-1.006 1.767-3.034.815-4.526a3.62 3.62 0 0 0-2.351-1.623 3.476 3.476 0 0 0-2.75.6c-1.997 1.444-2.519 4.332-1.152 6.441.799 1.233 1.997 2.06 3.395 2.352a5.035 5.035 0 0 0 3.964-.876c2.258-1.622 3.21-4.493 2.627-7.138.384.05.814.033 1.244-.113 1.306-.406 1.214-2.288 1.767-2.11.553.18.645.812.645.812-1.429.438-1.198 2.158-.86 1.866.568-.47 1.905.502 2.227 1.622.2.681 0 1.638-.553 2.823-.123.162-.261.308-.384.47a17.406 17.406 0 0 0-2.873 6.197s-.03 0-.046.016c-2.273 1.639-5.008 2.239-7.696 1.687-2.704-.535-5.039-2.157-6.576-4.558-.891-1.379-1.321-2.953-1.367-4.526.062-.39.169-1.2.231-2.271.46-1.98 1.551-3.813 3.272-5.046l.015.05Zm31.831 4.461c-1.92-.519-3.856-.405-5.438.406-2.581 1.346-3.149 2.969-3.656 4.396-.43 1.233-.845 2.417-2.597 3.602-1.044.713-2.135 1.022-3.195 1.346-1.229.357-2.473.73-3.426 1.703.277-1.46.753-2.887 1.429-4.217.891-.78 1.966-1.655 2.335-2.677.123-.325.215-.681.292-1.055 2.289-2.384 5.223-3.925 8.465-4.347a10.86 10.86 0 0 1 5.791.827v.016Zm3.779 18.316c-.414 0-.829.243-1.013.665 0 .032 0 .064-.016.097-.077.049-.153.13-.23.178a2.492 2.492 0 0 1-.415-1.005c-.446-2.19 1.828-2.97 2.489-4.056.645-1.087-1.03-2.287-1.905-1.833-.046-.179-.169-.34-.308-.487 0-.26 0-.503-.015-.762a6.16 6.16 0 0 0-2.181-4.072c-1.229-1.006-2.75-1.46-4.271-1.25-1.659.212-3.119 1.055-4.256 2.32-.046.033-.107.066-.138.114-.046.065-.092.13-.153.195-.047.065-.108.113-.154.178-.046.065-.077.146-.138.211-1.398 1.98-1.982 3.926-1.736 5.921.414 3.504 3.318 7.187 9.094 11.567 6.729 5.11 8.358 13.27 8.742 17.488-2.689-6.619-8.219-9.928-13.274-12.93-1.382-.827-2.75-1.638-4.04-2.498 1.137-1.022 1.383-2.466 1.49-3.325.123-.876-.384.275-1.551.146-1.03-.114-2.366-.568-3.687.243-2.336-2.255-4.056-5.045-4.548-9.02.215-3.974 1.629-4.396 3.995-5.094 1.106-.324 2.381-.697 3.61-1.54 2.197-1.477 2.734-3.034 3.21-4.397.477-1.379.861-2.45 2.889-3.504 2.104-1.103 5.192-.552 7.65 1.33 1.444 1.103 4.716 4.315 3.948 10.074a9.73 9.73 0 0 1-1.628 3.52c-.415.568-.906 1.055-1.413 1.51l-.047.016Zm-9.847.567c-1.49-1.233-2.443-3-2.673-4.98a6.138 6.138 0 0 1 .814-3.796 9.84 9.84 0 0 1 .492-.714c.891-1.103 2.12-1.817 3.487-1.995 1.122-.146 2.243.178 3.149.924a4.575 4.575 0 0 1 1.614 3.002v.097c-.323.081-.6.276-.707.665-.338 1.233.614 3.537-1.229 4.64-.523.308-.937.405-1.26.357.123-.114.231-.244.307-.406.246-.568 0-1.25-.537-1.509-.538-.26-1.183 0-1.429.568a1.014 1.014 0 0 0-.061.6.84.84 0 0 0 .046.26c.046.162.138.324.291.503.769.843 2.674.876 3.472-.13 0 0-1.812 2.19-2.55 2.222-.737.05-.107 1.071.968.455 1.075-.617 1.951-1.915 2.182-2.466 0 0-.83 1.687-1.076 3.212h-.046c-1.89.243-3.733-.292-5.223-1.525l-.031.016Zm6.883-1.444c-.2.455-.461 1.59-.4 2.677a8.98 8.98 0 0 1-1.137.276c.907-1.2 1.537-2.936 1.537-2.936v-.017Zm.414 2.401c0-.99.123-2.076.123-2.076-.077.6.154 1.25.538 1.768a4.84 4.84 0 0 1-.661.308Zm6.007 77.057c-.399-.178-1.137-.47-1.644-1.379-.922-1.671-1.751-4.331-4.624-4.996a5.104 5.104 0 0 0-.968-.13c-3.349-1.622-5.392-5.451-4.747-9.474.599-3.731 3.964-6.278 7.513-5.629 2.749.487 4.608 3.261 4.132 6.164a4.081 4.081 0 0 1-1.582 2.661 3.741 3.741 0 0 1-2.904.697c-1.613-.292-2.688-1.898-2.427-3.601.2-1.265 1.352-2.125 2.55-1.914.43.081.799.324 1.045.697.246.374.353.828.276 1.282 0 .065-.046.114-.061.178-.077-.146-.138-.275-.261-.389a1.407 1.407 0 0 0-2.074.033 1.604 1.604 0 0 0 .03 2.19c.077.081.169.113.262.178.107.211.291.373.537.406a2.536 2.536 0 0 0 1.997-.487 2.843 2.843 0 0 0 1.091-1.833c.138-.876-.046-1.769-.538-2.482a3.167 3.167 0 0 0-2.043-1.363c-2.043-.373-3.979 1.087-4.332 3.245-.415 2.579 1.229 5.045 3.672 5.483 1.428.259 2.872-.098 4.055-.974a5.99 5.99 0 0 0 1.045-1.054v12.508-.016Zm-7.789 28.227c-.092-2.417-.906-4.72-2.504-6.294-2.381-2.32-5.838-2.612-8.526-1.006.077-.276.169-.535.246-.827a10.658 10.658 0 0 0-1.076-7.787c-1.336-2.352-3.456-4.023-5.96-4.704-4.24-1.136-8.573 1.589-9.648 6.067-.876 3.666 1.229 7.413 4.701 8.338.154.033.292.049.446.081-.016 1.006.814 2.288 1.782 1.801 1.198-.6 2.304-3.099 4.516-2.304.615.227.983.519 1.198.828a1.013 1.013 0 0 0-.537.032c-.63.195-.968.892-.784 1.557.139.487.538.812.999.876-1.629 1.655-3.749 2.726-6.022 3.018-4.44.065-8.189-2.206-10.278-6.197-1.69-3.245-1.828-7.041-.338-9.442 1.444-2.319 2.735-2.628 4.24-3.001 1.521-.373 3.242-.795 5.116-3.179 1.06-1.347 1.644-2.791 2.151-4.072 1.06-2.661 1.766-4.445 6.129-4.104 1.275.34 2.504.811 3.672 1.395-.845.373-1.152 1.476-1.075 2.303.092 1.038.507-.649 1.305-.097.769.519.769 3.098 2.151 4.169 1.383 1.071 1.629 4.348 2.535 6.505.906 2.158 3.81 3.796 5.392 5.321.814.795 1.414 1.72 1.844 2.807a24.085 24.085 0 0 1-.63 4.656c-.215.908-.615 2.044-1.075 3.244l.03.016Zm-16.868-8.841c.599-.195 2.059-1.022 2.842-2.174.784-1.152-.199-2.011-.338-1.168-.153.844-2.642 2.628-2.642 2.628 1.152-.795 1.367-2.985.614-3.974a1.354 1.354 0 0 0-.476-.406.82.82 0 0 0-.261-.081c-.2-.049-.415-.081-.63 0-.63.195-.968.892-.783 1.557.184.666.845 1.022 1.474.828.185-.065.323-.162.461-.292 0 .373-.153.843-.553 1.395-1.398 1.979-3.641.551-4.962.779-.783.129-.983.989-.829 1.768-2.305-.941-3.657-3.569-3.027-6.148.861-3.618 4.363-5.792 7.774-4.883 2.12.567 3.902 1.979 5.023 3.958a9.006 9.006 0 0 1 .907 6.554c-.077.308-.169.584-.262.876a1.388 1.388 0 0 0-.645-.454c-1.26-.487-2.903-.309-3.502-.114 0 0 2.012-.519 3.379-1.444-1.628.049-3.564.811-3.564.811v-.016Zm4.041 1.914.03.017c-.276.681-.614 1.33-.998 1.93-.154-1.2-1.368-2.563-2.597-2.547 0 0 3.012 0 3.58.6h-.015ZM98.842 141.46c1.337-.308 2.12-1.379 2.566-2.012.445-.648-.415.049-1.306-.584-.353-.243-.737-.584-1.168-.876 3.411-4.088 3.227-10.252-.322-14.129 5.469-10.123.799-18.397-5.515-22.809-3.395-2.369-5.085-4.445-5.93-5.889 1.505.779 3.134 1.2 4.808 1.2.43 0 .86-.032 1.29-.08a10.794 10.794 0 0 0 4.61-1.704c0 .243-.047.438-.185.568-.322.292 1.168.827 1.813-.52 0 0 .538.195.599.78.062.583-1.598.162-2.181 1.378-.6 1.217-.262 2.45-.047 3.18.216.714.216-.357 1.23-.665.998-.325 2.504-.454 3.241-2.028.031-.049.031-.114.061-.162v53.226c-.491-.617-1.121-1.201-1.935-1.59-2.535-1.201-3.918-2.417-4.102-3.52-.169-1.12.63-2.612 1.337-2.482.43.081-.077-1.509-1.552-1.168 0 0-.184-.568.246-1.006.43-.422 1.121 1.216 2.473.924l-.03-.032Zm-17.405 8.079c-1.982-1.152-4.194-1.639-6.391-1.428.645-.795 1.275-1.606 1.95-1.736 1-.178 1.568-1.524 2.106-1.589.568-.065.414.908.69.405.293-.519.354-1.411-.445-1.768-.783-.341-1.52.649-2.027.438-.507-.211.184-2.077-.093-3.196-.26-1.119-1.044-2.725-2.765-3.163a2.977 2.977 0 0 0-1.06-.065.946.946 0 0 0-.169-.406c-3.088-3.585-2.842-9.165.553-12.426 1.29-1.233 2.965-1.898 4.686-1.785 1.736.082 3.333.876 4.5 2.239a5.427 5.427 0 0 1 1.307 3.845c-.062 1.427-.645 2.741-1.644 3.699a3.687 3.687 0 0 1-2.796 1.07 3.712 3.712 0 0 1-2.689-1.346c-.537-.617-.798-1.412-.768-2.255a3.135 3.135 0 0 1 .968-2.158c.43-.422.999-.632 1.598-.6a2.155 2.155 0 0 1 1.536.762c.292.341.446.779.415 1.233-.015.455-.2.876-.522 1.185-.23.211-.538.34-.815.308a1.01 1.01 0 0 1-.783-.389.746.746 0 0 0-1.09-.049.85.85 0 0 0-.047 1.152 2.61 2.61 0 0 0 1.859.924c.676.049 1.398-.227 1.92-.73.63-.6.983-1.411 1.03-2.303a3.393 3.393 0 0 0-.815-2.401 3.654 3.654 0 0 0-2.596-1.282 3.566 3.566 0 0 0-2.704 1.022 4.793 4.793 0 0 0-1.46 3.293 4.845 4.845 0 0 0 1.168 3.423c.984 1.136 2.305 1.801 3.764 1.866a5.221 5.221 0 0 0 3.902-1.493c.4-.373.722-.811 1.014-1.265v20.181a9.537 9.537 0 0 0-3.257-3.18l-.03-.032Zm-7.897 8.874c.415.584 1.091.973 1.66.486.983-.811 1.505-3.374 3.702-3.115.614.065 1.014.26 1.26.503a.919.919 0 0 0-.492.146c-.538.325-.722 1.039-.415 1.606.307.568.983.763 1.521.438a1.06 1.06 0 0 0 .4-.47.875.875 0 0 0 .107-.243v-.017c.046-.162.077-.357.046-.6-.169-1.184-1.751-2.433-2.996-2.109 0 0 2.781-.681 3.426-.243.645.438.707-.827-.553-1.006-1.26-.178-2.734.373-3.257.681 0 0 1.752-.924 2.827-2.076-1.49.406-3.119 1.541-3.119 1.541.507-.308 1.706-1.395 2.182-2.628.108-.276.138-.503.108-.714.245.114.491.227.721.373 3.718 2.158 5.085 7.106 3.058 11.032-1.583 3.066-5.239 4.201-8.142 2.514-2.074-1.2-2.92-3.828-2.074-6.083l.03-.016Zm3.918-8.598a9.28 9.28 0 0 1 1.859.502c0 .828-1.905 2.985-1.905 2.985.798-.876.706-2.595.046-3.487Zm-53.016 6.862c.445-.049.86-.39.998-.876.185-.665-.153-1.363-.783-1.558a1.015 1.015 0 0 0-.538-.032c.2-.308.569-.6 1.198-.827 2.197-.812 3.319 1.703 4.517 2.303.983.487 1.797-.795 1.782-1.801.154-.032.292-.032.446-.081 3.471-.924 5.592-4.672 4.7-8.338-1.075-4.477-5.407-7.203-9.647-6.067-2.52.681-4.64 2.336-5.96 4.704-1.337 2.353-1.706 5.127-1.076 7.787.061.276.153.552.246.827-2.689-1.606-6.145-1.314-8.527 1.022-1.613 1.574-2.427 3.878-2.504 6.295-.46-1.201-.86-2.336-1.075-3.245a24.045 24.045 0 0 1-.63-4.656c.43-1.103 1.03-2.027 1.844-2.806 1.582-1.525 4.485-3.147 5.392-5.321.906-2.158 1.152-5.451 2.535-6.505 1.382-1.071 1.382-3.634 2.15-4.169.8-.552 1.214 1.135 1.306.097.077-.827-.215-1.931-1.075-2.304a21.974 21.974 0 0 1 3.672-1.395c4.378-.324 5.07 1.444 6.13 4.104.506 1.282 1.075 2.726 2.15 4.072 1.874 2.385 3.595 2.807 5.116 3.18 1.49.373 2.796.681 4.24 3.001 1.49 2.401 1.367 6.197-.338 9.442-2.09 4.007-5.792 6.278-10.278 6.197-2.273-.292-4.378-1.363-6.007-3.018l.016-.032Zm6.974-6.441c-1.32-.211-3.564 1.201-4.962-.778-.4-.552-.538-1.022-.553-1.395.123.129.277.243.461.292.63.194 1.29-.163 1.475-.828.184-.665-.154-1.362-.784-1.557a1.181 1.181 0 0 0-.63 0c-.076 0-.168.049-.26.081a1.325 1.325 0 0 0-.477.406c-.753.989-.538 3.179.615 3.974 0 0-2.504-1.784-2.643-2.628-.153-.844-1.121.016-.338 1.168.784 1.152 2.243 1.979 2.842 2.174 0 0-1.935-.763-3.564-.811 1.367.924 3.38 1.444 3.38 1.444-.6-.195-2.243-.39-3.503.113a1.491 1.491 0 0 0-.645.454 18.874 18.874 0 0 1-.261-.876 9.018 9.018 0 0 1 .906-6.554c1.122-1.979 2.904-3.39 5.024-3.958 3.426-.908 6.913 1.282 7.773 4.883.615 2.596-.722 5.208-3.026 6.148.154-.778-.062-1.638-.83-1.768v.016Zm-8.31 4.786c-.385-.6-.723-1.233-1-1.93l.031-.017c.569-.616 3.58-.6 3.58-.6-1.244-.032-2.458 1.347-2.596 2.547h-.016ZM1.49 131.305v-12.021c.307.389.645.762 1.045 1.054a5.145 5.145 0 0 0 4.056.974c2.442-.438 4.086-2.904 3.671-5.483-.353-2.158-2.289-3.602-4.332-3.245-.83.146-1.552.633-2.043 1.363a3.446 3.446 0 0 0-.538 2.482 2.843 2.843 0 0 0 1.09 1.833 2.62 2.62 0 0 0 1.998.487.794.794 0 0 0 .538-.406c.092-.065.184-.097.26-.178.585-.601.585-1.574.031-2.19-.568-.617-1.49-.617-2.073-.033-.108.114-.185.26-.262.389-.015-.064-.046-.113-.061-.178-.077-.454.03-.908.276-1.282a1.588 1.588 0 0 1 1.045-.697c1.198-.211 2.35.649 2.55 1.914.277 1.703-.814 3.309-2.427 3.601a3.74 3.74 0 0 1-2.904-.697 4.082 4.082 0 0 1-1.582-2.661c-.46-2.903 1.383-5.661 4.133-6.164 3.548-.649 6.913 1.882 7.512 5.629.645 4.007-1.413 7.852-4.747 9.474-.307 0-.63.049-.968.13-2.873.665-3.702 3.325-4.624 4.996-.507.909-1.229 1.201-1.644 1.379v-.486.016Zm0-43.298c.907-5.045 4.455-7.106 6.499-7.9.2-.082.384-.13.583-.195a6.892 6.892 0 0 0-1.874 2.839c-.246.697-.353 1.444-.384 2.174-.03.032-.077.048-.108.08-3.164 4.105-4.163 8.793-3.01 14.033 0 .179-.292 3.829-1.69 6.359v-17.39H1.49Zm27.27-36.582a18.584 18.584 0 0 0 0-4.234 11.36 11.36 0 0 0 4.163 1.347v79.506a11.534 11.534 0 0 0-1.475-.049 15.833 15.833 0 0 0-1.951-.324c.03-.033.062-.049.092-.065 1.567-1.346 2.535-3.244 2.735-5.353.2-2.109-.384-4.186-1.66-5.84a9.21 9.21 0 0 0-3.149-2.612h.092v-57.46h-.23a17.028 17.028 0 0 0 1.352-4.9l.03-.016ZM54.936 123.6a16.478 16.478 0 0 0 1.982 1.995c-.338-.308-1.09-.827-1.982-1.2v-.795Zm1.414 2.563c-.415-.211-.907-.259-1.414-.194v-.422c.768.308 1.414.616 1.414.616Zm-1.414.746c.185 0 .354-.032.584 0 2.627.276 2.642 3.407 3.626 4.624.69.876 1.905.259 2.473-.633.999 1.379 1.751 3.31 1.951 5.354.184 1.914.077 6.602-4.7 8.727-1.414.633-2.72.909-3.934.974v-19.046Zm3.534-3.487c-.154-.763-.093-1.314.061-1.72.077.195.184.389.338.535.384.357.907.438 1.352.26v3.098c-.814-.373-1.52-.973-1.751-2.173Zm1.751-3.537s-.154-.049-.215-.065a.954.954 0 0 0-.307-.048h-.016c-.2 0-.414.048-.66.178-1.23.649-1.982 3.017-1.153 4.413 0 0-1.781-3.083-1.551-4.024.23-.941-1.168-.535-.876 1.039.292 1.573 1.429 3.163 1.951 3.666 0 0-1.136-1.201-2.458-2.093V51.993a8.799 8.799 0 0 0 5.008-2.969c.108-.13.185-.26.277-.389V119.9v-.016Zm-6.82 4.072s-.093-.016-.155-.016c-1.52-.13-1.736 1.379-.875 1.038.215-.081.599-.049 1.03.049v1.525c-.508.34-.907.794-1.076 1.297-.093.276-.108.519-.093.714v.016c0 .114.047.227.077.309.062.243.17.47.369.649.215.194.46.292.722.324v16.012c-4.255-.568-7.22-4.218-9.233-7.203a19.13 19.13 0 0 0-3.718-5.565c.815.098 1.552.276 1.967.698.86.86 2.535.552 2.965 1.038.46.519-.584 1.006.092.957.691-.048 1.598-.567 1.383-1.589-.215-1.006-1.675-1.087-1.828-1.72-.154-.633 2.104-1.184 2.98-2.19.875-1.006 1.874-2.839 1.106-4.818a3.516 3.516 0 0 0-1.014-1.428V59.228a5.703 5.703 0 0 0 2.304-1.46 4.967 4.967 0 0 0 1.321-3.52c-.015-.844-.26-1.67-.66-2.433.737.227 1.506.34 2.274.34h.061v71.817-.016Zm-44.046-15.12c-1.26-1.866-3.641-5.532-4.64-9.912a.386.386 0 0 0-.046-.179c-.783-3.585-.584-7.608 1.905-11.518.046.179.108.373.184.552-3.072 6.197-1.49 8.792 2.566 12.751 3.334 3.26 6.606 7.267 5.454 14.081-.784-2.839-2.858-4.964-5.439-5.775h.016Zm.983-28.309c-.03.844.338 1.72 1.168 1.704 1.382-.033 3.44-1.93 5.223-.195.507.487.737.941.814 1.33a1.004 1.004 0 0 0-.522-.21c-.676-.082-1.29.421-1.368 1.135-.076.714.4 1.363 1.076 1.444.23.032.445-.033.645-.13.077-.032.169-.081.246-.13a1.48 1.48 0 0 0 .415-.503c.599-1.168-.031-3.374-1.337-3.958 0 0 2.873 1.33 3.18 2.174.307.843 1.152-.243.138-1.265-.998-1.023-2.657-1.574-3.303-1.655 0 0 2.12.405 3.81.13-1.567-.682-3.733-.811-3.733-.811.645.08 2.381-.05 3.58-.812.292-.178.476-.405.584-.616a9.463 9.463 0 0 1 .676 7.787c-.8 2.27-2.382 4.072-4.471 5.077a6.288 6.288 0 0 1-5.131.195c-1.675-.665-3.011-1.963-3.764-3.682a5.752 5.752 0 0 1-.154-4.202 5.364 5.364 0 0 1 2.182-2.758l.046-.049Zm8.818-4.931c.522.551.983 1.168 1.398 1.833 0 .016-.03.016-.046.032-.476.747-3.564 1.33-3.564 1.33 1.29-.227 2.304-1.93 2.212-3.195Zm9.479 50.711c-.968.828-2.166 1.217-3.41 1.071-1.045-.114-1.982-.6-2.72-1.347.676-.178 1.26-.713 1.06-1.443-.353-1.282-2.396-2.742-1.336-4.786.291-.584.614-.892.921-1.054-.046.162-.076.34-.061.535a1.126 1.126 0 0 0 1.26 1.006c.614-.081 1.029-.682.952-1.331a1.064 1.064 0 0 0-.261-.567 1.097 1.097 0 0 0-.676-.455c-1.106-.292-2.796.795-2.98 2.142 0 0 .445-2.969 1.075-3.439.63-.471-.46-1.006-1.09.162-.63 1.168-.707 2.823-.63 3.439 0 0-.154-2.06-.769-3.553-.215 1.606.17 3.634.17 3.634-.078-.616-.584-2.19-1.49-3.131-.2-.211-.4-.324-.585-.373a6.96 6.96 0 0 1 .6-.568c1.597-1.362 3.594-1.995 5.637-1.784 2.044.227 3.887 1.265 5.178 2.952 1.014 1.314 1.474 2.969 1.32 4.64-.168 1.687-.936 3.196-2.18 4.266l.015-.016Zm-11.046-8.971c.722.292 1.905 3.001 1.905 3.001-.46-1.103-1.997-1.671-3.042-1.362a10.5 10.5 0 0 1 1.137-1.623v-.016Zm.123-2.368a11.213 11.213 0 0 0-1.92 2.141c1.613-5.84.4-10.139-1.829-13.529a.713.713 0 0 0 .047-.26V93.214c.138 0 .26.033.399.033 1.168 0 2.335-.26 3.426-.795.522-.243.998-.568 1.46-.892v22.322c-.554.308-1.076.665-1.583 1.087ZM7.651 89.532c.952 1.444 2.273 2.547 3.87 3.163.308.114.63.195.938.276v8.598a28.128 28.128 0 0 0-2.09-2.239c-3.517-3.455-4.731-5.272-2.718-9.798Zm7.758 42.373c-.277-.876-.538-2.028-.953-2.936.369.908.845 1.784 1.444 2.595-.169.114-.338.227-.491.357v-.016Zm1.49.892a1.175 1.175 0 0 1-.507.357c.169-.13.338-.243.507-.357Zm.292-2.125c-2.151-2.855-2.627-6.554-1.583-9.782.23.357.63.584 1.076.519.614-.081 1.029-.681.952-1.33a1.108 1.108 0 0 0-.2-.503c.338.065.723.276 1.153.746 1.536 1.671-.062 3.666-.062 4.997 0 1.054 1.321 1.314 2.136.908.076.13.153.26.245.373a6.431 6.431 0 0 0 1.813 1.606 22.593 22.593 0 0 0-5.546 2.45l.016.016Zm28.144-7.949c-1.199-.47-1.137-1.768-1.444-.908-.308.859-.8 2.336-.154 3.877.645 1.525 2.688 1.135 2.58 1.849-.107.714-.782.892-.782.892-.692-1.687-2.535-1.151-2.167-.778.6.616-.276 2.401-1.46 2.952-.168.081-.383.13-.598.162V57.168c.153.178.276.373.445.535 1.26 1.233 2.873 1.866 4.455 1.866.123 0 .246-.033.384-.033v63.674c-.445-.162-.875-.292-1.244-.438l-.015-.049Zm-1.306-69.091c.43-.033.737-.422.707-.86a1.677 1.677 0 0 1 .476-1.266c.983-1.038 2.688-1.005 3.81.065.737.714 1.167 1.687 1.183 2.66.015.893-.292 1.72-.876 2.337-1.705 1.817-4.64 1.768-6.544-.097-.907-.893-1.352-2.045-1.49-3.326v-1.98c.322-3.114 1.95-6.586 3.548-9.084-.2 2.725.6 5.175 2.212 7.024-1.09 0-2.15.39-2.95 1.233-.644.698-.982 1.606-.921 2.531.03.454.43.795.814.746l.03.017Zm-4.27-.179v77.219c-1.107-.259-2.459-.843-4.056-1.801a5.55 5.55 0 0 0-1.23-.551V48.635c.661 0 1.306-.081 1.967-.21a11.395 11.395 0 0 0 4.486-1.98c-.907 2.336-1.444 4.818-1.153 7.057l-.015-.049Zm-13.643 59.699a9.134 9.134 0 0 0-1.628-.341c-1.26-.13-2.489 0-3.656.389V90.197a10.703 10.703 0 0 0 2.273-3.731c.937-2.677.845-5.564-.292-8.16-1.198-2.758-3.38-5.061-5.93-6.424.139 0 .292-.016.415-.049 1.383-.324 3.042-1.46 4.087-1.103 1.06.357 2.273-.633 2.826-.422.584.244-.046 1.12.477.763.537-.341 1.029-1.185.43-1.963-.6-.763-1.798-.179-2.197-.665-.4-.47 1.183-1.93 1.475-3.18.245-1.038.276-2.612-.584-3.893a18.211 18.211 0 0 0 2.304-2.726v54.508Zm-4.27-49.462c.215.648-.246 1.103-.246 1.103-.6-.536-1.199-.536-1.613-.357.445-.292.875-.6 1.305-.925.277-.049.492-.032.569.178h-.015Zm-2.274 1.022c-.154.162-.2.324-.046.389.753.26.799 2.157.092 3.163-.722.99-2.658 1.428-5.715 1.217-1.137-.081-2.166.227-3.011.649 1.552-1.07 3.165-2.044 4.793-3.001a121.738 121.738 0 0 0 3.902-2.401l-.015-.016ZM5.562 74.948a.69.69 0 0 0 .368-.195c2.78-2.741 5.7-2.823 7.681-2.4 1.413.291 2.765.956 3.994 1.865a1.253 1.253 0 0 0-.952 1.103c-.077.714.4 1.363 1.075 1.444.2.032.384 0 .553-.081-.153.357-.476.73-1.075 1.087-2.12 1.265-3.702-1.087-5.039-1.46-.845-.244-1.413.616-1.536 1.492-1.014.097-2.09.34-3.15.746a11.635 11.635 0 0 0-5.484 4.3c.645-3.261 1.905-5.792 3.564-7.885v-.016ZM1.52 107.944c1.46-1.427 2.274-3.682 2.719-5.564.737 1.963 1.751 3.991 3.042 6.067-.507 0-1.014 0-1.536.114-1.767.324-3.257 1.363-4.225 2.79v-3.407Zm12.105 14.876c-.23 2.028.031 4.105.784 6.035a3.685 3.685 0 0 0-.369-.649c-.66-.908-1.69-1.93-2.995-2.498a10.282 10.282 0 0 0 2.58-2.888Zm-.906 13.903c.108.243.2.487.261.73.461 1.898-.845 4.915-3.902 8.776a9.606 9.606 0 0 0-1.306 2.223 23.078 23.078 0 0 1 2.796-8.614 22.96 22.96 0 0 1 2.151-3.131v.016Zm29.65 6.408c-1.782-2.855-3.503-3.277-5.177-3.683-1.414-.34-2.735-.665-4.286-2.628-.922-1.168-1.414-2.433-1.905-3.666-.615-1.541-1.214-3.05-2.535-4.023 2.58.146 5.054.925 7.266 2.222.6.552 1.245 1.039 1.89 1.282a17.484 17.484 0 0 1 3.333 3.488.796.796 0 0 0 .123.616c.215.325.461.698.722 1.12.292.47.63 1.005 1.014 1.557.415.957.753 1.947 1.014 3.001a14.763 14.763 0 0 1-.538 8.582c.692-2.872.4-5.759-.921-7.884v.016Zm3.165-.146c2.212 2.466 5.161 4.607 8.971 4.607 1.521 0 3.18-.341 4.978-1.152 3.963-1.768 6.068-5.645 5.622-10.382-.23-2.547-1.183-4.883-2.488-6.505.937-.568 1.628-2.174.614-2.888-.369-.259-.906-.422-1.46-.584V45.439c.692.811 1.552 1.622 1.614 2.369.076.94 1.167 1.638 1.183 2.141.015.535-.815.26-.4.584.415.325 1.168.52 1.536-.178.354-.682-.43-1.493-.215-1.93.215-.439 1.752.437 2.72.324.967-.098 2.396-.617 2.888-2.142.491-1.525-.4-2.644-.86-3.536-.462-.893.2-1.59-.385-1.282-.584.325-1.551.909-1.905 2.109-.353 1.2.984 2.06.584 2.401-.4.34-.876.097-.876.097.4-1.314-.89-1.979-.86-1.573.046.665-1.29 1.216-2.212.908-.86-.276-1.705-1.541-2.473-3.699a7.654 7.654 0 0 0 3.64.925 7.74 7.74 0 0 0 2.412-.39c1.644-.535 3.073-2.01 4.148-4.233 1.414-2.92 2.074-6.992 1.874-10.529.4.65.815 1.363 1.23 2.125-3.964 10.302-1.844 16.32 1.075 21.252.584.99 1.121 1.768 1.598 2.466 1.505 2.174 2.135 3.082.937 5.872-2.35-3.617-6.883-5.045-10.785-3.163-5.361 2.596-7.712 9.295-5.27 14.957.815 1.882 2.26 3.472 4.103 4.672v76.165c-.66-2.418-2.428-4.429-4.886-5.159-3.087-.925-6.314 1.006-7.19 4.266-.721 2.71.784 5.516 3.334 6.278 1.03.309 2.12.179 2.98-.356a.826.826 0 0 0 .277-1.104c-.215-.389-.691-.519-1.044-.292-.507.309-1.153.39-1.798.195-1.736-.519-2.765-2.433-2.273-4.266.645-2.401 3.01-3.829 5.3-3.148 1.428.422 2.627 1.412 3.349 2.775a6.153 6.153 0 0 1 .507 4.461c-1.06 4.007-5.009 6.359-8.803 5.223-1.705-.503-3.257-1.573-4.624-3.195-2.55-3.034-5.561-8.761-6.652-14.812l-.015-.032Zm24.042-3.569c.445.649 1.229 1.72 2.565 2.012 1.337.308 2.044-1.347 2.474-.925.43.422.246 1.006.246 1.006-1.475-.341-1.982 1.233-1.552 1.168.706-.13 1.505 1.379 1.336 2.482-.169 1.119-1.567 2.336-4.101 3.52-.815.389-1.445.973-1.936 1.59V97.108s.03.113.061.178c.722 1.59 2.228 1.72 3.242 2.028.998.325 1.014 1.395 1.229.665.215-.714.538-1.947-.046-3.18-.6-1.216-2.243-.794-2.182-1.378.062-.584.6-.78.6-.78.645 1.347 2.135.812 1.812.52-.138-.13-.184-.324-.184-.568a10.657 10.657 0 0 0 4.609 1.704c.43.048.86.08 1.29.08 1.69 0 3.318-.437 4.808-1.2-.844 1.428-2.534 3.504-5.93 5.889-6.313 4.413-10.984 12.686-5.515 22.809-3.564 3.877-3.733 10.042-.322 14.13-.446.292-.814.616-1.168.876-.875.616-1.736-.065-1.305.584l-.031-.049ZM84.709 23.052v13.79c-.922-2.791-2.09-4.738-3.41-6.198-.938-3.974 1.797-6.505 3.41-7.608v.016Zm9.478 6.213a.973.973 0 0 0-.184.325c-5.162 9.36-11.583 25.388-3.134 36.679.03.032.062.048.092.08.031.098.031.196.077.293.323.908.799 1.72 1.398 2.417-.077-.032-.154-.049-.246-.081-1.858-.714-5.1-2.612-5.945-7.219V44.385c1.23-10.35 4.394-13.19 8.111-15.46-.061.113-.122.21-.184.324l.016.016Zm-6.605 55.238c.184 1.703.983 3.228 2.258 4.299 1.045.876 2.35 1.281 3.687 1.12 1.336-.163 2.52-.86 3.349-1.964a4.57 4.57 0 0 0 .876-3.228 4.388 4.388 0 0 0-1.552-2.936 3.372 3.372 0 0 0-2.566-.779c-.921.114-1.75.6-2.335 1.363-1.014 1.346-.799 3.293.477 4.364.107.08.23.13.353.146.2.113.415.178.66.194.922.065 1.721-.665 1.783-1.638.061-.974-.63-1.817-1.552-1.882-.215 0-.43.016-.63.097.046-.097.077-.194.138-.276a1.882 1.882 0 0 1 1.306-.762 1.836 1.836 0 0 1 1.429.438c.553.454.89 1.12.983 1.85.077.73-.123 1.46-.553 2.043-.584.763-1.398 1.25-2.32 1.363-.922.114-1.828-.162-2.565-.778-.953-.795-1.552-1.931-1.69-3.213a4.93 4.93 0 0 1 .952-3.52c2.013-2.677 5.7-3.13 8.235-1.006 2.673 2.24 3.487 6.019 2.258 9.198a1.509 1.509 0 0 0-.737-.324c-.553-.081.276.373-.123.779-.384.373-1.736.032-2.474.697-.737.665-2.504.373-3.763.617-1.26.243-2.49 1.72-3.503 2.433a4.16 4.16 0 0 1-1.86.714 10.331 10.331 0 0 1-1.873-1.152V74.688c1.644 1.314 3.44 2.288 5.346 2.888-1.03.503-1.982 1.217-2.735 2.222-1.014 1.347-1.46 3.018-1.275 4.721l.016-.016Zm-19.004 3.893a9.791 9.791 0 0 0 1.675 3.57c.092.129.2.243.307.372-.46.276-.953.584-1.244.958-.277.34-.553.81-.738 1.33v-6.23Zm8.403-9.912c1.552.195 2.95 1.006 3.918 2.304a4.951 4.951 0 0 1 .952 3.52c-.138 1.266-.737 2.417-1.69 3.212-.722.617-1.628.876-2.565.779a3.406 3.406 0 0 1-2.32-1.363 2.91 2.91 0 0 1-.553-2.044c.077-.73.43-1.395.983-1.85.415-.34.922-.502 1.43-.437.521.065.982.34 1.305.762.061.081.092.179.138.276a2.049 2.049 0 0 0-.63-.097c-.921.065-1.613.908-1.551 1.882.061.973.86 1.703 1.782 1.638.23-.016.46-.081.66-.195a.752.752 0 0 0 .354-.146c1.275-1.07 1.474-3.017.476-4.363-.584-.763-1.413-1.25-2.335-1.363a3.31 3.31 0 0 0-2.566.779c-.875.73-1.413 1.768-1.551 2.936-.123 1.168.184 2.32.875 3.228.83 1.103 2.028 1.8 3.35 1.963a4.73 4.73 0 0 0 3.686-1.12c1.275-1.07 2.074-2.595 2.259-4.298.184-1.704-.262-3.375-1.275-4.721a7.385 7.385 0 0 0-2.735-2.223 16.13 16.13 0 0 0 5.33-2.887v18.072a9.072 9.072 0 0 1-1.873 1.151 4.234 4.234 0 0 1-1.86-.713c-1.013-.73-2.242-2.19-3.502-2.434-1.26-.243-3.011.049-3.764-.616-.737-.665-2.089-.325-2.473-.698-.4-.389.43-.86-.123-.778a1.402 1.402 0 0 0-.737.34 8.337 8.337 0 0 1-.538-3.893c.23-2.109 1.229-3.99 2.796-5.321 1.229-1.022 2.75-1.493 4.317-1.298l.03.016Zm-2.657 14.211c.937-.519 2.704-.146 5.13 1.12.738.373 1.491.519 2.213.567a9.038 9.038 0 0 1-3.794.341c-1.49-.178-2.889-.73-4.118-1.557a2.47 2.47 0 0 1 .553-.454l.016-.017ZM89.67 30.661c-1.321 1.46-2.489 3.39-3.41 6.18V23.068c1.613 1.12 4.332 3.65 3.41 7.592ZM84.724 44.4v17.374c-.845 4.607-4.07 6.505-5.945 7.22-.077.032-.154.048-.246.08a7.6 7.6 0 0 0 1.398-2.417c.03-.097.046-.195.077-.292.03-.032.061-.049.092-.08 8.45-11.308 2.028-27.336-3.134-36.696a.744.744 0 0 0-.169-.308 5.8 5.8 0 0 0-.184-.325c3.718 2.271 6.882 5.11 8.111 15.46V44.4ZM80.3 63.073c-.077-.6-.215-1.2-.43-1.768 2.135-4.315 1.32-5.873-.569-8.598-.46-.665-.998-1.428-1.536-2.369-2.58-4.38-4.501-9.684-1.398-18.59 4.486 8.484 9.294 21.462 3.933 31.325Zm-1.951-1.492a6.179 6.179 0 0 1 .153 4.51 5.78 5.78 0 0 1-1.843 2.611c.046-.795-.292-1.638-1.076-1.622-1.275.032-3.164 1.784-4.808.178-.46-.454-.676-.86-.737-1.216.138.097.307.178.476.194.614.081 1.183-.389 1.26-1.054.076-.649-.37-1.25-.999-1.33-.215-.033-.415.032-.6.113-.076.033-.153.065-.23.13-.138.097-.26.243-.384.47-.553 1.071.016 3.115 1.23 3.634 0 0-2.658-1.216-2.935-1.995-.276-.762-1.06.227-.123 1.168.922.94 2.443 1.46 3.042 1.525 0 0-1.966-.373-3.503-.114 1.444.633 3.426.746 3.426.746-.599-.08-2.181.05-3.287.747-1.106.697-.569 1.85-.123 1.168.445-.681 3.287-1.217 3.287-1.217-1.29.227-2.304 2.06-1.997 3.245.062.243.154.405.261.551a.7.7 0 0 0 .2.179c.154.13.338.243.553.26.615.08 1.183-.39 1.26-1.055.077-.65-.369-1.25-.999-1.33a.89.89 0 0 0-.507.08c.139-.324.446-.68.999-1.005.445-.26.845-.34 1.244-.325a.699.699 0 0 0 .323.244c.384.146.783.227 1.183.276.691.421 1.321.973 1.905 1.135.768.21 1.29-.552 1.413-1.346.937-.081 1.936-.26 2.919-.65 2.32-.892 4.179-2.433 5.423-4.444v6.505c-3.564 3.342-8.158 4.72-12.69 3.764a12.406 12.406 0 0 1-3.625-1.363.686.686 0 0 0-.46-.292c-1.63-1.038-2.904-2.417-3.611-4.04-2.105-4.834-.077-10.593 4.501-12.8 3.595-1.735 7.85-.064 9.494 3.732l-.015.032Zm-6.606 16.352c.23.048.46.065.691.113-.246.163-.491.292-.706.487-1.613 1.346-2.674 3.196-3.134 5.272v-6.927c.983.47 2.027.828 3.149 1.071v-.016Zm1.813 44.904c-4.717-9.036-.507-16.434 5.177-20.392 3.134-2.19 4.947-4.185 6.007-5.759v15.849a7.475 7.475 0 0 0-.86-1.427c.552-.487.875-1.428.23-1.882-.876-.616-2.95-.406-3.334-2.32-.108-.535-.061-.925.046-1.2a.84.84 0 0 0 .23.373.894.894 0 0 0 1.322-.065c.353-.406.322-1.038-.062-1.395a.886.886 0 0 0-.46-.227.827.827 0 0 0-.216-.033.908.908 0 0 0-.46.13c-.86.454-1.398 2.109-.815 3.082 0 0-1.244-2.174-1.075-2.839.169-.665-.814-.389-.615.73.2 1.103.999 2.223 1.368 2.58 0 0-1.153-1.249-2.32-1.85.691 1.152 1.982 2.239 1.982 2.239-.369-.357-1.506-1.071-2.566-1.168-1.06-.097-1.229.957-.614.73.614-.243 2.78.844 2.78.844-.983-.503-2.489.227-2.826 1.184-.062.195-.077.357-.062.503 0 .081.03.162.046.227a.972.972 0 0 0 .261.454.894.894 0 0 0 1.322-.065c.353-.405.322-1.038-.062-1.395-.108-.113-.246-.162-.384-.211.246-.146.614-.227 1.121-.178 1.844.194 1.844 2.401 2.52 3.26.445.552 1.168.26 1.613-.243.553.779.968 1.833 1.121 2.985.37 2.742-.752 5.143-2.995 6.44-.753-.292-1.552-.503-2.381-.535-1.813-.081-3.564.503-5.024 1.606l-.015-.032Zm11.168-2.839v4.818c-.184-.276-.353-.552-.568-.811-.477-.552-1.014-.99-1.583-1.379a7.38 7.38 0 0 0 2.151-2.628Zm6.806-26.183c2.442-1.266 4.194-1.639 5.13-1.12.2.114.385.276.554.455a9.106 9.106 0 0 1-4.117 1.557 9.059 9.059 0 0 1-3.795-.34c.722-.033 1.475-.18 2.212-.569l.016.017Zm9.202-1.85a9.785 9.785 0 0 0 1.674-3.569v6.23a4.61 4.61 0 0 0-.737-1.33c-.292-.374-.783-.682-1.244-.958.107-.13.215-.243.307-.373Zm1.674-8.29c-.476-1.962-1.52-3.796-3.134-5.142-.23-.195-.476-.324-.706-.487.23-.032.46-.065.691-.113a14.02 14.02 0 0 0 3.149-1.07v6.812Zm.646-8.987a.83.83 0 0 0-.477.292 12.4 12.4 0 0 1-3.625 1.363c-4.517.957-9.126-.422-12.69-3.764V66.09c1.245 2.012 3.104 3.553 5.423 4.445a10.89 10.89 0 0 0 2.92.65c.107.794.645 1.557 1.413 1.346.568-.163 1.198-.714 1.905-1.136a6.164 6.164 0 0 0 1.182-.276c.139-.048.23-.146.323-.243.4-.016.799.065 1.244.325.554.324.845.68.999 1.005a1.081 1.081 0 0 0-.507-.08c-.614.08-1.06.664-.998 1.33.076.648.629 1.119 1.259 1.054.215-.033.4-.13.553-.26a1.88 1.88 0 0 0 .2-.178c.108-.13.2-.308.261-.552.307-1.184-.707-3.017-1.997-3.244 0 0 2.842.535 3.288 1.217.445.68.983-.471-.123-1.169-1.106-.697-2.704-.81-3.288-.746 0 0 1.982-.113 3.426-.746-1.536-.26-3.503.114-3.503.114.599-.082 2.12-.584 3.042-1.525.922-.941.154-1.93-.123-1.168-.276.762-2.934 1.995-2.934 1.995 1.214-.535 1.782-2.563 1.229-3.634a1.458 1.458 0 0 0-.384-.47c-.077-.049-.154-.098-.231-.13a.955.955 0 0 0-.599-.114c-.614.081-1.06.666-.998 1.33.077.65.63 1.12 1.259 1.055a.975.975 0 0 0 .477-.195c-.062.357-.277.763-.738 1.217-1.643 1.606-3.533-.146-4.808-.178-.784-.017-1.122.827-1.076 1.622a5.78 5.78 0 0 1-1.843-2.612 6.179 6.179 0 0 1 .154-4.51c1.643-3.796 5.914-5.467 9.494-3.731 4.578 2.222 6.606 7.965 4.501 12.8-.707 1.622-1.967 3-3.61 4.039v-.049ZM91.13 61.305a8.012 8.012 0 0 0-.43 1.768c-5.361-9.863-.553-22.841 3.933-31.326 3.103 8.907 1.198 14.211-1.398 18.591-.553.925-1.075 1.688-1.536 2.369-1.89 2.725-2.704 4.283-.569 8.598Zm6.453-37.555c-.108.178-.246.357-.37.551a11.068 11.068 0 0 1-3.379 3.099c-.83.503-1.659 1.038-2.443 1.655-.015-3.975-3.01-6.733-5.13-7.885v-.584c1.536 2.336 4.516 3.196 6.974 1.866 1.075-.584 1.874-1.574 2.243-2.79a4.928 4.928 0 0 0-.292-3.65c-.952-1.963-3.226-2.726-5.085-1.72-1.552.844-2.181 2.871-1.367 4.526.676 1.395 2.32 1.947 3.625 1.233a.837.837 0 0 0 .338-1.087.748.748 0 0 0-1.029-.357c-.568.308-1.275.065-1.567-.535-.415-.844-.092-1.898.707-2.336 1.106-.6 2.458-.13 3.026 1.022.369.746.43 1.606.184 2.417a3.077 3.077 0 0 1-1.49 1.85c-1.935 1.054-4.317.243-5.3-1.801-1.29-2.645-.292-5.922 2.213-7.284 3.226-1.752 7.22-.406 8.879 3 1.352 2.775.968 6.084-.737 8.81Zm-18.958-3.715c1.322.714 2.95.162 3.626-1.233.799-1.639.184-3.666-1.383-4.526-1.859-1.006-4.148-.227-5.085 1.72a5.004 5.004 0 0 0-.292 3.65c.369 1.216 1.168 2.206 2.243 2.79 2.458 1.346 5.439.486 6.975-1.866v.584c-2.12 1.168-5.116 3.91-5.131 7.884-.784-.632-1.613-1.152-2.443-1.654a11.65 11.65 0 0 1-3.38-3.099c-.123-.195-.245-.39-.368-.552-1.706-2.725-2.105-6.034-.738-8.808 1.66-3.407 5.638-4.77 8.88-3.002 2.504 1.363 3.502 4.624 2.212 7.284-.999 2.044-3.38 2.856-5.3 1.801a3.132 3.132 0 0 1-1.49-1.85 3.293 3.293 0 0 1 .184-2.416c.569-1.168 1.92-1.623 3.026-1.022.8.438 1.122 1.492.707 2.336-.292.6-.998.843-1.567.535a.744.744 0 0 0-1.03.357c-.199.405-.045.892.339 1.087h.015Zm7.635 99.979a7.492 7.492 0 0 0 2.151 2.612c-.568.389-1.121.827-1.582 1.379a6.89 6.89 0 0 0-.569.811v-4.802Zm3.764 1.768c-2.243-1.298-3.364-3.699-2.995-6.44.153-1.152.568-2.206 1.121-2.985.43.519 1.168.811 1.613.243.676-.86.676-3.066 2.52-3.26.522-.049.875.032 1.121.178a.82.82 0 0 0-.384.211 1.019 1.019 0 0 0-.061 1.395c.353.406.937.438 1.32.065a.972.972 0 0 0 .262-.454.542.542 0 0 0 .046-.227c0-.146 0-.309-.062-.503-.338-.957-1.843-1.688-2.826-1.185 0 0 2.166-1.07 2.78-.843.615.243.446-.811-.614-.73-1.06.097-2.197.811-2.566 1.168 0 0 1.29-1.087 1.982-2.239-1.167.617-2.32 1.849-2.32 1.849.37-.356 1.168-1.46 1.368-2.579.2-1.103-.784-1.379-.615-.73.17.665-1.075 2.839-1.075 2.839.584-.973.046-2.644-.814-3.082a.898.898 0 0 0-.461-.13c-.077 0-.154 0-.215.032a.895.895 0 0 0-.461.228 1.019 1.019 0 0 0-.062 1.395c.354.405.937.438 1.321.065a1.07 1.07 0 0 0 .23-.374c.124.276.154.666.047 1.201-.369 1.914-2.458 1.703-3.334 2.32-.63.454-.307 1.395.23 1.882a7.827 7.827 0 0 0-.86 1.411V96.67c1.06 1.573 2.873 3.569 5.992 5.759 5.669 3.958 9.878 11.355 5.177 20.391-1.46-1.103-3.21-1.687-5.024-1.606-.83.049-1.613.244-2.38.536v.032Zm15.347 34.035c-.829-3.115.907-6.359 3.856-7.235 2.274-.665 4.655.746 5.3 3.147.492 1.833-.537 3.763-2.273 4.266-.63.195-1.291.114-1.798-.194-.368-.227-.829-.098-1.044.292a.826.826 0 0 0 .276 1.103c.861.535 1.951.665 2.981.357 2.55-.763 4.055-3.569 3.333-6.278-.86-3.277-4.102-5.192-7.189-4.267-1.829.535-3.349 1.801-4.271 3.537-.277.503-.461 1.038-.615 1.589V75.986c1.844-1.2 3.288-2.79 4.102-4.672 2.458-5.662.092-12.361-5.269-14.957-3.902-1.882-8.434-.454-10.785 3.163-1.198-2.79-.568-3.698.937-5.872.477-.698 1.03-1.477 1.598-2.466 2.919-4.948 5.039-10.95 1.075-21.252.43-.762.845-1.46 1.23-2.125-.2 3.537.46 7.609 1.874 10.529 1.075 2.222 2.504 3.698 4.148 4.234.798.26 1.597.39 2.411.39 1.245 0 2.489-.325 3.641-.926-.768 2.158-1.613 3.407-2.473 3.7-.937.307-2.258-.244-2.212-.91.031-.405-1.26.26-.86 1.574 0 0-.477.244-.876-.097-.4-.34.952-1.2.584-2.401-.354-1.2-1.322-1.784-1.905-2.109-.584-.324.077.373-.384 1.282-.461.892-1.368 2.011-.86 3.536.491 1.525 1.92 2.044 2.888 2.142.967.097 2.504-.763 2.719-.325.215.438-.569 1.25-.215 1.93.353.698 1.121.504 1.536.179.415-.324-.415-.065-.4-.584.016-.503 1.107-1.2 1.183-2.141.062-.763.922-1.558 1.613-2.369v80.707c-.568.162-1.09.308-1.459.584-1.014.714-.323 2.32.614 2.888-1.305 1.622-2.258 3.958-2.488 6.505-.446 4.737 1.659 8.614 5.622 10.382 1.798.795 3.457 1.152 4.978 1.152 3.81 0 6.744-2.141 8.972-4.607-1.091 6.051-4.102 11.794-6.668 14.811-1.367 1.622-2.919 2.693-4.609 3.196-3.794 1.119-7.742-1.217-8.802-5.224l-.016-.016Zm51.726-86.288c-3.057.211-5.008-.227-5.715-1.216-.722-.99-.661-2.888.092-3.163.154-.05.108-.228-.046-.39 1.275.844 2.596 1.622 3.902 2.401 1.613.957 3.242 1.93 4.793 3.001-.845-.422-1.889-.73-3.011-.649l-.015.016Zm-6.084-5.028c-.414-.163-1.014-.179-1.613.356 0 0-.461-.454-.245-1.103.061-.21.276-.21.568-.178.43.324.86.616 1.306.925h-.016Zm-4.424.827c.292 1.25 1.859 2.693 1.475 3.18-.4.47-1.598-.098-2.197.665-.615.778-.108 1.622.43 1.963.538.34-.107-.536.476-.763.553-.227 1.767.779 2.827.422 1.06-.357 2.704.779 4.102 1.103.138.032.276.049.43.049-2.55 1.362-4.732 3.666-5.93 6.424a11.176 11.176 0 0 0-.292 8.16 10.998 10.998 0 0 0 2.274 3.763v22.988a8.944 8.944 0 0 0-3.656-.39 9.116 9.116 0 0 0-1.629.341v-54.54a16.647 16.647 0 0 0 2.304 2.725c-.86 1.282-.829 2.855-.583 3.894l-.031.016Zm7.435 13.513s-3.087-.584-3.564-1.33c0-.016-.03-.016-.046-.032a13.22 13.22 0 0 1 1.398-1.834c-.107 1.266.907 2.97 2.212 3.196Zm.231 1.428c-.645.08-2.304.632-3.303 1.654-.999 1.022-.154 2.11.138 1.266.307-.844 3.18-2.174 3.18-2.174-1.321.584-1.935 2.79-1.336 3.958.123.244.261.39.414.503.077.065.169.098.246.13.2.097.415.162.646.13.675-.081 1.152-.73 1.075-1.444-.077-.714-.691-1.217-1.367-1.136-.2.017-.369.114-.523.211.077-.389.308-.827.815-1.33 1.782-1.752 3.84.146 5.223.195.829.016 1.198-.844 1.167-1.687 2.228 1.427 3.15 4.412 2.044 6.96-1.537 3.552-5.531 5.11-8.895 3.487-2.074-1.006-3.672-2.807-4.471-5.078a9.463 9.463 0 0 1 .676-7.787c.108.211.292.422.584.617 1.198.762 2.934.892 3.579.811 0 0-2.15.13-3.733.811 1.675.276 3.81-.13 3.81-.13l.031.033Zm12.044 18.493s-.031.114-.046.179c-.999 4.38-3.38 8.046-4.639 9.928-2.581.811-4.655 2.936-5.439 5.775-1.152-6.813 2.12-10.82 5.454-14.081 4.056-3.958 5.638-6.554 2.565-12.75.062-.18.123-.374.185-.552 2.504 3.91 2.688 7.933 1.905 11.518l.015-.016Zm-40.833 29.72s-.676-.195-.784-.892c-.107-.714 1.936-.308 2.581-1.85.645-1.524.154-3.017-.154-3.877-.307-.86-.245.454-1.444.909-.368.146-.799.276-1.244.438V59.537c.123 0 .246.032.384.032 1.582 0 3.195-.617 4.455-1.866.169-.162.307-.357.446-.535v73.666a2.345 2.345 0 0 1-.6-.162c-1.182-.551-2.058-2.336-1.459-2.952.369-.374-1.475-.909-2.166.778l-.015-.016Zm27.683-35.981a7.847 7.847 0 0 0 3.426.794c.138 0 .276-.016.399-.032v10.107c0 .097.015.178.046.259-2.243 3.407-3.441 7.69-1.828 13.53a11.808 11.808 0 0 0-1.92-2.142 8.751 8.751 0 0 0-1.583-1.087V91.64a10.4 10.4 0 0 0 1.46.877V92.5Zm10.17-2.937c2.012 4.543.799 6.36-2.719 9.815a31.142 31.142 0 0 0-2.09 2.239V93.02a8.22 8.22 0 0 0 4.809-3.456Zm-9.94 27.806c.43.503.814 1.054 1.137 1.622-1.029-.292-2.581.259-3.042 1.363 0 0 1.183-2.693 1.905-3.002v.017Zm-1.091-1.12c.216.179.4.373.6.568a1.597 1.597 0 0 0-.584.373c-.907.941-1.398 2.515-1.49 3.131 0 0 .384-2.028.169-3.634-.615 1.493-.768 3.553-.768 3.553.076-.616 0-2.271-.63-3.439-.63-1.168-1.706-.633-1.091-.162.63.47 1.075 3.439 1.075 3.439-.184-1.347-1.874-2.434-2.98-2.142-.23.065-.384.163-.507.26a.949.949 0 0 0-.169.195c-.123.162-.23.34-.261.567-.077.649.338 1.233.952 1.331.615.081 1.168-.357 1.26-1.006.031-.195 0-.373-.061-.535.307.162.614.47.921 1.054 1.045 2.044-.998 3.52-1.336 4.786-.2.73.384 1.265 1.06 1.443-.738.747-1.675 1.233-2.719 1.347a4.498 4.498 0 0 1-3.411-1.071c-1.244-1.07-2.012-2.579-2.181-4.266a6.49 6.49 0 0 1 1.321-4.64c1.29-1.687 3.134-2.725 5.177-2.952 2.043-.211 4.04.405 5.638 1.784l.015.016Zm-4.055 12.005a6.249 6.249 0 0 0 1.813-1.606c.092-.114.153-.26.245-.373.815.389 2.136.146 2.136-.909 0-1.33-1.598-3.325-.062-4.996.43-.471.814-.682 1.152-.746a1.303 1.303 0 0 0-.199.502c-.077.649.338 1.233.952 1.331.43.065.845-.163 1.076-.519 1.044 3.228.568 6.927-1.583 9.782a21.99 21.99 0 0 0-5.546-2.45l.016-.016Zm6.329 4.948c-.184-.065-.338-.179-.507-.357.169.113.338.227.507.357Zm.492-1.606a11.876 11.876 0 0 0 1.444-2.596c-.415.925-.676 2.06-.953 2.936-.153-.129-.322-.227-.491-.356v.016ZM142.18 51.425c.23 1.85.707 3.472 1.352 4.9h-.231v57.459h.093a9.528 9.528 0 0 0-3.15 2.612c-2.627 3.407-2.135 8.42 1.091 11.194.031.032.061.032.092.065-.66.081-1.321.178-1.966.34-.446-.032-.937 0-1.444.049V48.538a11.061 11.061 0 0 0 4.163-1.347 16.994 16.994 0 0 0 0 4.234Zm-5.7 76.927c-.414.146-.829.308-1.229.552-1.597.957-2.949 1.557-4.055 1.801V53.502c.276-2.239-.261-4.721-1.152-7.057a11.532 11.532 0 0 0 4.485 1.98 11.63 11.63 0 0 0 1.967.21v79.733l-.016-.016Zm-6.82-77.138v1.98c-.139 1.281-.584 2.433-1.491 3.325-1.905 1.866-4.839 1.914-6.544.097-.584-.616-.891-1.443-.876-2.336.016-.99.461-1.962 1.183-2.66 1.122-1.087 2.827-1.12 3.81-.081.338.357.507.81.476 1.265-.03.454.292.828.707.86.384.032.783-.308.814-.746.062-.909-.276-1.833-.922-2.531a3.895 3.895 0 0 0-2.934-1.233c1.629-1.85 2.412-4.315 2.212-7.024 1.598 2.482 3.227 5.97 3.549 9.084h.016Zm-9.126 6.554a5.707 5.707 0 0 0 2.305 1.46v64.842a3.36 3.36 0 0 0-1.014 1.427c-.768 1.979.215 3.812 1.106 4.818.891 1.006 3.134 1.558 2.98 2.19-.154.633-1.613.714-1.828 1.72-.215 1.022.691 1.541 1.383 1.59.691.048-.354-.438.092-.958.43-.486 2.104-.178 2.965-1.038.414-.422 1.152-.584 1.966-.697a19.199 19.199 0 0 0-3.718 5.564c-1.997 3.001-4.962 6.651-9.233 7.203v-16.012a1.24 1.24 0 0 0 .723-.324c.184-.179.291-.406.368-.649.031-.098.062-.195.077-.308v-.017c.015-.211 0-.438-.092-.713-.169-.503-.569-.958-1.076-1.298v-1.525c.431-.097.799-.146 1.03-.049.86.341.645-1.152-.876-1.038-.046 0-.092.016-.154.016V52.155h.062c.768 0 1.536-.13 2.274-.34-.4.746-.646 1.573-.661 2.433a4.968 4.968 0 0 0 1.321 3.52Zm-9.801 64.744c.445.179.968.114 1.352-.259.153-.146.261-.341.338-.536.169.39.215.941.061 1.72-.246 1.2-.937 1.784-1.751 2.174v-3.099Zm-1.398 8.403c.568.893 1.782 1.509 2.473.633.968-1.217.983-4.364 3.626-4.623.23-.017.399 0 .584 0v19.045c-1.214-.049-2.52-.341-3.933-.973-4.763-2.126-4.87-6.814-4.701-8.728.184-2.044.937-3.975 1.951-5.354Zm6.683-6.505c-.891.373-1.644.892-1.982 1.201 0 0 1.045-.876 1.982-1.996v.795Zm0 1.152v.422c-.492-.065-.984-.033-1.414.194 0 0 .63-.308 1.414-.616Zm0-2.612c-1.322.909-2.458 2.093-2.458 2.093.537-.503 1.674-2.077 1.951-3.666.292-1.574-1.106-1.98-.876-1.039.23.941-1.552 4.024-1.552 4.024.83-1.396.077-3.764-1.152-4.413a1.43 1.43 0 0 0-.66-.178h-.016a.954.954 0 0 0-.307.048c-.077 0-.154.049-.215.065V48.651c.092.13.169.26.276.39a8.847 8.847 0 0 0 5.009 2.968v70.957-.016Zm11.107 19.548a17.446 17.446 0 0 1 1.014-3.001c.368-.568.706-1.087 1.014-1.557.261-.422.507-.795.722-1.12a.822.822 0 0 0 .122-.616 17.51 17.51 0 0 1 3.334-3.488c.661-.243 1.291-.73 1.905-1.281 2.212-1.298 4.686-2.093 7.267-2.223-1.306.973-1.905 2.466-2.52 4.023-.491 1.233-.998 2.498-1.905 3.667-1.551 1.962-2.873 2.287-4.286 2.628-1.659.405-3.395.827-5.177 3.682-1.321 2.125-1.613 5.013-.922 7.884a14.51 14.51 0 0 1-.538-8.582l-.03-.016Zm34.765 3.796c-3.057-3.877-4.363-6.878-3.902-8.776.061-.243.154-.487.261-.73a22.986 22.986 0 0 1 2.151 3.131 23.088 23.088 0 0 1 2.796 8.614c-.338-.762-.753-1.525-1.306-2.222v-.017Zm-4.962-18.023a3.737 3.737 0 0 0-.369.649 12.53 12.53 0 0 0 .784-6.035 10.273 10.273 0 0 0 2.581 2.888c-1.306.584-2.335 1.59-2.996 2.498Zm8.296-19.661c-.507-.098-1.03-.114-1.537-.114 1.291-2.093 2.305-4.121 3.042-6.067.446 1.882 1.26 4.136 2.704 5.564v3.407c-.983-1.428-2.458-2.466-4.225-2.79h.016Zm4.224-3.196c-1.398-2.531-1.689-6.181-1.689-6.36 1.152-5.24.153-9.928-3.012-14.032a.27.27 0 0 0-.107-.081c-.092-1.914-.891-3.715-2.274-4.997.2.065.384.114.599.195 2.044.779 5.577 2.855 6.499 7.9v17.391l-.016-.016Zm-5.976-26.816a12.113 12.113 0 0 0-3.149-.746c-.123-.876-.691-1.72-1.536-1.493-1.337.373-2.919 2.726-5.039 1.46-.599-.357-.922-.73-1.075-1.087.169.065.353.098.553.081.676-.08 1.152-.73 1.075-1.443a1.253 1.253 0 0 0-.953-1.104c1.214-.908 2.581-1.557 3.995-1.865 1.966-.406 4.9-.325 7.681 2.4a.82.82 0 0 0 .369.195c1.659 2.093 2.919 4.64 3.564 7.885-1.321-1.915-3.196-3.407-5.485-4.3v.017Zm-61.388-42.925a4.57 4.57 0 0 0 2.642 2.336c1.982.65 4.087-.519 4.701-2.595.522-1.752-.415-3.618-2.074-4.17a2.512 2.512 0 0 0-2.043.195 2.835 2.835 0 0 0-1.321 1.655.831.831 0 0 0 .507 1.022c.399.13.829-.097.968-.535.092-.309.291-.552.553-.714.261-.146.583-.179.875-.081.845.275 1.321 1.249 1.06 2.141-.368 1.233-1.613 1.914-2.78 1.525-.753-.243-1.368-.795-1.736-1.541a3.29 3.29 0 0 1-.2-2.385 4.03 4.03 0 0 1 1.905-2.417 3.713 3.713 0 0 1 2.965-.276c2.658.876 4.148 3.877 3.318 6.684-.522 1.752-1.659 3.18-3.195 4.04-1.536.843-3.303 1.021-4.962.47-1.552-.52-2.627-2.142-3.242-3.423-1.69-3.52-2.227-8.81-1.32-12.46 1.028.91 2.134 1.704 3.302 2.32.86.455 1.736.828 2.642 1.104-.076.032-.153.048-.23.097-1.291.714-2.228 1.898-2.658 3.358a4.994 4.994 0 0 0 .307 3.618l.016.032Zm-33.199-8.192a16.438 16.438 0 0 0 3.303-2.32c.907 3.634.37 8.939-1.32 12.459-.615 1.282-1.675 2.904-3.242 3.423a6.112 6.112 0 0 1-4.962-.47c-1.537-.844-2.673-2.288-3.196-4.04a5.655 5.655 0 0 1 .338-4.072c.63-1.265 1.675-2.19 2.965-2.628a3.713 3.713 0 0 1 2.965.276c.922.503 1.598 1.363 1.905 2.417.23.795.17 1.638-.2 2.385a3.018 3.018 0 0 1-1.736 1.54 2.057 2.057 0 0 1-1.69-.161 2.344 2.344 0 0 1-1.09-1.38c-.261-.891.215-1.865 1.06-2.14.292-.098.599-.066.876.08.276.146.476.406.552.714.123.422.569.665.968.536.4-.13.63-.584.507-1.022-.215-.714-.676-1.314-1.32-1.655a2.502 2.502 0 0 0-2.044-.195c-1.66.552-2.581 2.417-2.074 4.17.307 1.005.953 1.833 1.843 2.32a3.595 3.595 0 0 0 2.858.275c1.152-.373 2.09-1.2 2.642-2.336.553-1.12.66-2.4.307-3.618-.43-1.46-1.382-2.66-2.657-3.358l-.23-.097a17.95 17.95 0 0 0 2.642-1.103h.03ZM8.25 161.576a61.994 61.994 0 0 0 2.243 4.802H4.04c1.69-1.12 3.503-2.742 4.21-4.802Zm58.823-5.321v-.114c.077-.275.092-.551.138-.827a.655.655 0 0 0 .184-.227c1.26-2.433 3.334-4.185 5.853-4.964a8.838 8.838 0 0 1 2.213-.39 1.25 1.25 0 0 0-.062 1.25c.307.567.983.762 1.521.438.154-.098.277-.227.369-.373.077.356.03.811-.215 1.411-.891 2.125-3.242 1.33-4.41 1.817-.583.243-.69.876-.537 1.476a10.043 10.043 0 0 0-2.95 3.001c-1.029 1.655-1.905 4.267-.768 7.625h-9.156c4.225-1.801 6.975-5.289 7.789-10.123h.03Zm17.651 7.186v2.937h-3.518a7.563 7.563 0 0 0 3.518-2.937Zm1.536-30.887a7.08 7.08 0 0 0 1.014 1.265c1.076 1.022 2.458 1.558 3.902 1.493 1.445-.065 2.781-.73 3.764-1.866a4.844 4.844 0 0 0 1.168-3.423 4.93 4.93 0 0 0-1.46-3.293c-.737-.714-1.674-1.087-2.703-1.022a3.654 3.654 0 0 0-2.597 1.282 3.392 3.392 0 0 0-.814 2.4c.046.893.4 1.704 1.03 2.304 1.09 1.055 2.78.957 3.779-.195a.85.85 0 0 0-.047-1.151.76.76 0 0 0-1.09.048c-.43.487-1.153.536-1.613.081a1.706 1.706 0 0 1-.523-1.184 1.785 1.785 0 0 1 .415-1.233c.4-.47.937-.73 1.536-.762.6-.033 1.153.194 1.598.6.584.568.922 1.33.968 2.158.03.827-.23 1.638-.768 2.255a3.865 3.865 0 0 1-2.689 1.346 3.684 3.684 0 0 1-2.796-1.071c-.998-.957-1.582-2.271-1.643-3.698-.062-1.428.399-2.791 1.305-3.845 1.168-1.363 2.766-2.158 4.502-2.239 1.736-.113 3.395.552 4.685 1.785 3.395 3.26 3.641 8.841.553 12.426a.68.68 0 0 0-.169.406 2.977 2.977 0 0 0-1.06.065c-1.72.421-2.504 2.027-2.765 3.163-.261 1.119.415 2.985-.092 3.196-.507.211-1.245-.795-2.028-.438-.799.357-.722 1.249-.446 1.768.292.519.139-.47.692-.406.537.065 1.106 1.412 2.104 1.59.692.13 1.306.957 1.952 1.736-2.197-.195-4.41.292-6.391 1.428-1.352.778-2.443 1.914-3.257 3.244v-20.229l-.016.016Zm7.298 20.765s-1.92-2.174-1.905-2.985a9.283 9.283 0 0 1 1.858-.503c-.66.892-.752 2.628.047 3.488Zm-6.99 2.498c.584-2.077 1.89-3.796 3.687-4.851.23-.129.476-.259.722-.373-.016.195 0 .438.107.714.492 1.233 1.675 2.32 2.182 2.628 0 0-1.629-1.135-3.119-1.541 1.075 1.168 2.827 2.076 2.827 2.076-.507-.308-1.997-.859-3.257-.681-1.26.179-1.198 1.444-.553 1.006.645-.438 3.426.243 3.426.243-1.26-.324-2.842.909-2.996 2.109-.03.243 0 .438.046.6v.017c.03.097.062.178.108.243.092.178.215.357.4.47.537.325 1.213.13 1.52-.438.307-.567.123-1.281-.415-1.606a1.097 1.097 0 0 0-.491-.146c.245-.243.645-.421 1.26-.503 2.196-.259 2.703 2.304 3.702 3.115.568.471 1.244.098 1.659-.486.845 2.254 0 4.899-2.074 6.083-1.398.811-3.026 1.006-4.563.519-1.536-.47-2.811-1.557-3.58-3.034a8.452 8.452 0 0 1-.629-6.18l.03.016Zm15.209 2.92c-.769-1.249-1.844-2.271-2.95-3.001.154-.6.046-1.233-.538-1.476-1.167-.487-3.518.308-4.409-1.817-.246-.601-.292-1.055-.215-1.412.092.146.215.276.369.373.538.325 1.213.13 1.52-.438a1.213 1.213 0 0 0-.06-1.249c.737.049 1.49.162 2.212.39 2.519.778 4.593 2.547 5.853 4.964a.755.755 0 0 0 .169.211c.046.275.076.551.138.827v.113c.829 4.835 3.564 8.323 7.789 10.123h-9.156c1.152-3.358.261-5.97-.769-7.624l.047.016Zm60.943 2.823c.706 2.06 2.519 3.698 4.209 4.802h-6.452a52.572 52.572 0 0 0 2.243-4.802Zm-1.214-101.7c-1.659-1.264-3.042-2.449-4.209-3.6 1.336.567 2.78.827 4.27.632.569-.08 1.137-.21 1.675-.373.307.179.599.081.538-.178a11.353 11.353 0 0 0 1.828-.893c.061 0 .107.033.169.033.215 0 .399-.033.537-.098h.016a.976.976 0 0 0 .215-.13c.154-.113.307-.259.384-.453.046-.13.077-.26.077-.374a11.111 11.111 0 0 0 1.597-1.735c.323-.438.6-.893.845-1.363v20.1c-1.29-3.942-3.656-8.29-7.957-11.567h.015Zm-15.9-31.811c6.314-1.136 10.969 1.881 12.766 4.315a13.42 13.42 0 0 0-2.135.081c-2.551.324-4.916 1.282-6.99 2.742.522-.747.507-1.963.891-2.255.461-.357.752.632.783 0 .031-.617-.292-1.493-1.137-1.412-.829.081-1.044 1.38-1.582 1.46-.538.065-.737-2.011-1.444-2.92-.707-.908-2.089-1.995-3.764-1.508-1.551.454-2.028 1.849-2.489 2.87-.03-.048-.046-.113-.076-.161-1.183-1.833-2.965-3.066-5.009-3.472a7.503 7.503 0 0 0-5.868 1.282 9.629 9.629 0 0 0-2.489 2.628c-.215-1.898-.737-3.894-1.859-5.467a6.695 6.695 0 0 0-2.442-2.093c4.731-1.8 8.203-.195 11.86 1.541 3.256 1.558 6.636 3.147 11.03 2.352l-.046.017ZM115.249 8.857c2.228 1.071 3.918 3.002 4.763 5.419a10.121 10.121 0 0 1-.261 7.381c-.584 1.33-1.537 2.498-2.766 3.455a65.794 65.794 0 0 0-2.504 1.46c-.768.325-1.567.584-2.427.763-2.996.633-6.022.227-8.757-1.07.999-3.083 1.168-6.782 1.045-8.226.676 1.623 1.874 3.018 3.518 3.813.246.113.507.194.768.276-.184.778.292 1.979 1.137 1.735 1.014-.292 2.228-2.076 3.841-1.103.461.276.706.552.814.827a.962.962 0 0 0-.43-.064c-.507.064-.876.551-.83 1.103.062.535.523.924 1.045.876.184-.017.322-.114.461-.211a.706.706 0 0 0 .169-.146 1.11 1.11 0 0 0 .215-.454c.246-.974-.584-2.499-1.659-2.677 0 0 2.35.454 2.719 1.006.368.567.814-.39-.108-.974-.922-.567-2.227-.681-2.719-.616 0 0 1.644-.097 2.842-.617-1.275-.21-2.903.098-2.903.098.491-.065 1.751-.487 2.519-1.266.768-.778.123-1.606-.107-.973-.231.633-2.428 1.655-2.428 1.655.999-.438 1.475-2.125 1.03-3.018a1.141 1.141 0 0 0-.308-.389.508.508 0 0 0-.184-.097.755.755 0 0 0-.492-.098c-.522.065-.875.552-.829 1.103.061.536.522.925 1.044.877a.878.878 0 0 0 .4-.163c-.062.292-.231.633-.615 1.006-1.352 1.33-2.919-.113-3.979-.146-.522 0-.798.422-.875.941-2.719-1.395-3.918-4.834-2.643-7.738 1.644-3.796 5.9-5.467 9.494-3.731v-.017ZM95.586 5.564c1.735-1.022 3.226-1.898 5.361-1.119 4.578 1.687 3.487 7.008 3.349 7.608a7.805 7.805 0 0 0-.584 2.969c-.952-3.228-3.333-7.917-9.11-8.484-.292-.033-.553-.017-.814-.033.63-.292 1.23-.632 1.797-.957v.016Zm-5.777 1.687c-1.644.747-2.78 1.915-3.564 3.083V4.802c.814 1.217 1.982 2.222 3.564 2.466V7.25Zm-5.1-2.465v5.548c-.784-1.152-1.92-2.336-3.564-3.083 1.582-.243 2.75-1.265 3.564-2.465ZM69.992 4.46c2.135-.795 3.625.098 5.361 1.12.553.324 1.168.665 1.797.957-.276 0-.537 0-.814.032-5.791.552-8.157 5.256-9.11 8.5a7.816 7.816 0 0 0-.584-2.984c-.138-.6-1.228-5.905 3.35-7.609V4.46Zm-19.065 9.831c.845-2.417 2.55-4.348 4.762-5.418 3.595-1.736 7.85-.065 9.494 3.73 1.26 2.92.077 6.36-2.642 7.739-.077-.503-.354-.94-.876-.94-1.06.032-2.627 1.475-3.979.145-.384-.373-.553-.714-.614-1.006a.878.878 0 0 0 .4.162c.506.065.982-.324 1.044-.876.061-.551-.307-1.038-.83-1.103a.994.994 0 0 0-.491.098l-.185.097c-.107.081-.215.21-.307.39-.46.892.015 2.563 1.03 3.017 0 0-2.198-1.006-2.428-1.655-.23-.633-.876.178-.108.973.769.78 2.028 1.2 2.52 1.266 0 0-1.613-.309-2.904-.098 1.199.52 2.843.617 2.843.617-.492-.065-1.813.032-2.72.616-.921.568-.476 1.525-.107.974.368-.568 2.719-1.006 2.719-1.006-1.075.178-1.905 1.703-1.66 2.677.047.194.124.34.216.454a.485.485 0 0 0 .169.146c.138.113.276.194.46.21.523.066.984-.324 1.045-.875.062-.536-.307-1.039-.83-1.103a.78.78 0 0 0-.43.064c.123-.275.37-.567.815-.827 1.613-.957 2.811.827 3.84 1.103.845.244 1.322-.957 1.137-1.735.261-.082.523-.163.768-.276 1.644-.795 2.843-2.19 3.518-3.813-.123 1.428.046 5.143 1.045 8.225-2.734 1.298-5.76 1.704-8.757 1.07a12.61 12.61 0 0 1-2.427-.762 65.012 65.012 0 0 0-2.504-1.46c-1.229-.957-2.197-2.125-2.765-3.455a10.125 10.125 0 0 1-.261-7.381v.016ZM25.333 28.065c4.393.795 7.773-.811 11.03-2.352 3.656-1.736 7.113-3.342 11.86-1.541a6.695 6.695 0 0 0-2.443 2.092c-1.121 1.574-1.644 3.57-1.859 5.467a9.87 9.87 0 0 0-2.488-2.628c-1.736-1.249-3.81-1.703-5.869-1.281-2.058.405-3.84 1.654-5.008 3.471-.03.049-.046.114-.077.162-.46-1.022-.937-2.433-2.488-2.871-1.69-.487-3.058.6-3.764 1.509-.707.908-.907 2.985-1.444 2.92-.538-.065-.753-1.38-1.583-1.46-.845-.081-1.167.778-1.137 1.411.031.617.323-.373.784 0 .384.292.384 1.492.89 2.255-2.073-1.46-4.439-2.417-6.989-2.742a11.812 11.812 0 0 0-2.135-.08c1.797-2.434 6.452-5.451 12.766-4.316l-.046-.016ZM1.49 51.328c.246.47.522.925.845 1.363a11.138 11.138 0 0 0 1.598 1.735c0 .13.03.26.077.373.092.195.23.341.384.455.061.048.123.097.215.13h.015c.138.064.323.113.538.097.061 0 .107-.016.169-.033a11.31 11.31 0 0 0 1.828.893c-.062.26.246.357.538.178.553.162 1.106.308 1.674.373 1.49.195 2.934-.048 4.27-.632a46.156 46.156 0 0 1-4.208 3.6c-4.317 3.278-6.668 7.626-7.958 11.568v-20.1h.015Zm.292 85.233c.522.665 1.122 1.411 1.813 2.612.875 1.508.845 3.617.83 5.856-.031 2.79-.047 5.678 1.659 7.884.061.844.153 1.687.307 2.531-.983-.714-2.197-1.038-3.41-.779a3.283 3.283 0 0 0-1.49.746v-19.207c.091.114.184.243.291.373v-.016Zm22.137 29.817a18.461 18.461 0 0 0 2.382-1.314c3.533-2.336 6.037-1.185 9.478.405.645.292 1.321.617 2.013.909H23.919Zm62.326-2.969c.876 1.363 2.105 2.385 3.564 2.969h-3.564v-2.969Zm46.917 2.969c.707-.292 1.367-.6 2.013-.909 3.456-1.59 5.945-2.725 9.478-.405a17.57 17.57 0 0 0 2.381 1.314h-13.872Zm36.302-10.983c-.43-.357-.937-.633-1.49-.746-1.214-.243-2.428.081-3.411.795a28.36 28.36 0 0 0 .307-2.531c1.706-2.206 1.69-5.094 1.66-7.884-.016-2.239-.031-4.348.829-5.856.691-1.201 1.291-1.947 1.813-2.612.107-.13.2-.243.292-.373v19.207Z"/>
</svg>
