<svg xmlns="http://www.w3.org/2000/svg" width="128" height="168" fill="none" viewBox="0 0 128 168">
  <path fill="#fff" d="M124.281 8.572V4.155h3.142c0-2.3-1.853-4.155-4.149-4.155a4.146 4.146 0 0 0-4.149 4.155h3.142v4.417h-1.128v-.06H6.285v.06H5.157V4.155h3.142C8.299 1.855 6.446 0 4.149 0A4.146 4.146 0 0 0 0 4.155h3.142v4.417H0v29.49h1.249v95.507H0V168h8.299v-4.942h110.826V168h8.278v-34.431h-1.228V38.062h1.228V8.572h-3.142.02Zm1.128 2.018v25.455h-1.128V10.589h1.128ZM14.402 157.692c-.665.766.725-.908.967-1.836.242-.927.665-1.835.222-1.654-.423.182-1.974.283-2.478.888-.504.605-.645.988-.967.726-.322-.242.302-1.19-.04-1.15-.343.041-1.128.323-1.39 1.029s.12 2.199.12 2.199-.765-.908-.865-.525c-.04.141.201 1.009.261 1.452 0 .162.04.404.081.666-.644-1.271-1.208-2.582-1.55-3.974-1.995-7.846 2.779-15.874 10.614-17.85 2.982-.767 6.084-.303 8.742 1.27a11.786 11.786 0 0 1 3.324 2.986c.02.06.04.1.06.161.101.141.202.302.323.464.684 1.069 1.248 2.219 1.57 3.489 1.23 4.841-1.711 9.763-6.526 10.993a7.013 7.013 0 0 1-5.317-.766 7.045 7.045 0 0 1-3.223-4.317 5.358 5.358 0 0 1 .604-4.114 5.377 5.377 0 0 1 3.324-2.481 4.13 4.13 0 0 1 3.122.463 4.171 4.171 0 0 1 1.893 2.542c.343 1.311-.241 2.642-1.309 3.348 0-.04.02-.06.02-.101a2.361 2.361 0 0 0-2.357-2.36 2.349 2.349 0 0 0-2.356 2.36c0 .666.282 1.251.705 1.675.08.161.201.302.362.383a4.325 4.325 0 0 0 3.163.423 5.134 5.134 0 0 0 3.142-2.339 5.03 5.03 0 0 0 .564-3.873 6.078 6.078 0 0 0-2.82-3.772 6.075 6.075 0 0 0-4.653-.686 7.287 7.287 0 0 0-4.552 3.409c-1.007 1.714-1.31 3.711-.826 5.628a8.926 8.926 0 0 0 4.13 5.546 8.954 8.954 0 0 0 6.848.989c3.807-.968 6.647-3.833 7.775-7.322 1.047 2.36 2.337 4.397 3.525 5.728 1.168 1.332 2.538 2.219 4.049 2.643a6.982 6.982 0 0 0 1.792.242c2.921 0 5.62-1.937 6.446-4.882.06-.181.06-.383.1-.564a.535.535 0 0 0 .101-.121 6.55 6.55 0 0 1 3.928-3.167c1.692-.484 3.465-.303 4.996.544a5.013 5.013 0 0 1 2.437 3.026 5.046 5.046 0 0 1-.423 3.853 3.896 3.896 0 0 1-2.296 1.855c-.987.283-2.035.182-2.921-.322a2.839 2.839 0 0 1-1.37-1.715 2.8 2.8 0 0 1 .242-2.199 2.035 2.035 0 0 1 1.209-.988c.523-.161.825-.746.644-1.271a.992.992 0 0 0-1.269-.645 4.087 4.087 0 0 0-2.357 1.936 4.91 4.91 0 0 0-.402 3.732c.18.625.483 1.19.866 1.694h-40.93c.483-.444.926-.948 1.228-1.452.423-.706.645-1.977.907-2.179.261-.201-.564-.504-1.209.263v.02Zm104.743-12.95c-.605-1.19-1.249-2.541-1.491-2.38-.322.222-.04 2.441-.383 2.501-.342.061-.886-1.23-1.248-2.117-.383-.888-2.317-2.925-4.734-3.994-2.417-1.069-5.076-.262-5.66.766-.584 1.029.161 2.562 1.067 2.36.907-.201.625-1.19.625-1.19 0 .746-1.128 1.17-1.309.061-.202-1.11 2.517-2.441 3.706.423 1.188 2.864 2.578 2.38 3.928 2.28 1.349-.101 1.329 1.492 1.027 2.4-.302.907-2.095-1.251-2.034.08.06 1.332 2.457 2.925 3.363 3.53.242.162.464.343.665.545-1.813-.767-3.807-.928-5.741-.363-1.45.423-2.719 1.23-3.746 2.299a5.574 5.574 0 0 0-3.666-3.368c-2.458-.686-5.036.766-5.72 3.227-.585 2.078.644 4.256 2.719 4.821.866.242 1.772.141 2.497-.283a1 1 0 0 0 .363-1.371c-.282-.484-.907-.646-1.37-.363-.262.161-.604.181-.926.08a1.896 1.896 0 0 1-1.31-2.339 2.614 2.614 0 0 1 3.243-1.816 3.548 3.548 0 0 1 2.458 4.357c-.685 2.481-3.284 3.933-5.761 3.248-1.128-.323-2.175-1.009-3.102-2.038-1.612-1.815-3.606-5.325-4.492-9.036 1.29 1.009 2.84 1.755 4.734 1.755 1.027 0 2.135-.222 3.323-.726 2.719-1.15 4.17-3.671 3.868-6.757-.182-1.796-.927-3.429-1.974-4.498h17.061v7.906h.02Zm-55.695 2.36c-.06-.484-.161-.907-.343-1.21-.684-1.19-1.752-3.752-2.094-3.53-.323.222-.04 2.441-.383 2.501-.343.061-.886-1.23-1.249-2.117-.383-.888-2.316-2.925-4.734-3.994-2.437-1.069-5.076-.262-5.66.766-.584 1.029.161 2.562 1.068 2.36.906-.201.624-1.19.624-1.19 0 .746-1.128 1.17-1.309.061-.201-1.11 2.518-2.441 3.706.423 1.189 2.864 2.579 2.38 3.928 2.28 1.35-.101 1.33 1.492 1.027 2.4-.302.907-2.094-1.251-2.034.08.06 1.332 2.457 2.925 3.364 3.53.14.101.282.222.423.343a8.571 8.571 0 0 0-5.278-.181c-1.45.423-2.719 1.23-3.746 2.299a5.574 5.574 0 0 0-3.666-3.368c-1.188-.343-2.437-.182-3.525.423s-1.853 1.594-2.196 2.804c-.584 2.077.625 4.256 2.72 4.821.866.242 1.772.141 2.497-.283a.995.995 0 0 0 .363-1.371c-.282-.484-.907-.646-1.37-.363a1.216 1.216 0 0 1-.926.08 1.896 1.896 0 0 1-1.31-2.339 2.507 2.507 0 0 1 1.25-1.574 2.638 2.638 0 0 1 1.993-.242 3.547 3.547 0 0 1 2.458 4.357c-.685 2.481-3.263 3.933-5.761 3.247-1.128-.322-2.175-1.008-3.102-2.037-1.611-1.815-3.606-5.325-4.492-9.036 1.29 1.008 2.84 1.755 4.734 1.755 1.027 0 2.135-.222 3.323-.726 2.72-1.15 4.17-3.671 3.868-6.758-.182-1.795-.927-3.429-1.974-4.498h26.608a16.594 16.594 0 0 0-7.19 6.556c-.706 1.19-1.23 2.44-1.632 3.731h.02Zm43.93-117.996c.061-.182.061-.383.101-.565.04-.04.081-.08.101-.12a6.55 6.55 0 0 1 3.928-3.168 6.439 6.439 0 0 1 4.995.545 5.009 5.009 0 0 1 2.437 3.026 5.041 5.041 0 0 1-.423 3.852c-1.027 1.856-3.364 2.542-5.217 1.533-1.39-.766-1.893-2.521-1.148-3.913a2.034 2.034 0 0 1 1.209-.988c.523-.162.826-.747.644-1.271a.992.992 0 0 0-1.269-.645 4.084 4.084 0 0 0-2.356 1.936 4.904 4.904 0 0 0-.403 3.731c.181.626.483 1.19.866 1.695H70.097c.483-.444.947-.968 1.229-1.453.423-.706.644-1.976.906-2.178.262-.202-.564-.504-1.209.262-.664.767.726-.907.967-1.835.242-.928.665-1.836.222-1.654-.423.181-1.974.282-2.478.887-.503.605-.644.989-.966.726-.323-.242.302-1.19-.04-1.15-.343.041-1.129.323-1.39 1.03-.262.705.12 2.198.12 2.198s-.765-.908-.866-.524c-.04.14.201 1.008.262 1.452.04.282.1.766.181 1.27-.805-1.431-1.45-2.944-1.873-4.558-1.994-7.846 2.78-15.874 10.615-17.85 4.633-1.19 9.347.645 12.066 4.255.02.04.04.101.06.141.141.182.282.424.443.666.08.121.182.262.262.383.504.888.927 1.856 1.189 2.905a9.079 9.079 0 0 1-.987 6.858 8.917 8.917 0 0 1-5.54 4.135 7.014 7.014 0 0 1-5.317-.767 7.047 7.047 0 0 1-3.223-4.316 5.36 5.36 0 0 1 .604-4.115 5.38 5.38 0 0 1 3.324-2.481c1.067-.282 2.175-.1 3.122.464a4.17 4.17 0 0 1 1.893 2.541 3.13 3.13 0 0 1-.342 2.36 3.072 3.072 0 0 1-1.028 1.009c0-.04.02-.08.02-.121a2.36 2.36 0 0 0-2.356-2.36 2.349 2.349 0 0 0-2.357 2.36c0 .686.302 1.29.786 1.714.08.142.201.262.342.343a4.326 4.326 0 0 0 3.163.424 5.131 5.131 0 0 0 3.142-2.34 5.065 5.065 0 0 0 .564-3.893 6.079 6.079 0 0 0-2.82-3.772c-1.41-.827-3.062-1.089-4.653-.686-3.968 1.009-6.385 5.063-5.378 9.037a8.927 8.927 0 0 0 4.13 5.547 8.956 8.956 0 0 0 6.848.988c3.807-.968 6.647-3.832 7.775-7.322 1.047 2.36 2.336 4.397 3.525 5.729 1.168 1.33 2.538 2.218 4.048 2.642a7.002 7.002 0 0 0 1.813.242 6.483 6.483 0 0 0 3.263-.867 6.629 6.629 0 0 0 3.163-4.034l.06.06Zm-2.92 28.703h.825c-.342 4.88-2.457 7.765-4.552 10.529-1.873 2.46-3.625 4.8-3.585 8.189-.04 3.388 1.732 5.708 3.585 8.19 2.095 2.762 4.21 5.647 4.552 10.528h-.825a.999.999 0 0 0-1.008 1.009.999.999 0 0 0 1.008 1.008h.825c-.342 4.881-2.457 7.766-4.552 10.529-1.873 2.461-3.625 4.801-3.585 8.189-.04 3.389 1.732 5.709 3.585 8.19 2.095 2.763 4.23 5.647 4.552 10.569H87.379c.323-4.902 2.458-7.786 4.553-10.569 1.873-2.461 3.626-4.801 3.585-8.19.04-3.388-1.732-5.728-3.585-8.189-2.095-2.763-4.21-5.648-4.553-10.529h.907a.998.998 0 0 0 1.007-1.008.998.998 0 0 0-1.007-1.009h-.907c.343-4.881 2.458-7.766 4.553-10.529 1.873-2.46 3.626-4.8 3.585-8.19.04-3.388-1.732-5.707-3.585-8.188-2.095-2.764-4.21-5.648-4.553-10.53h.907a.998.998 0 0 0 1.007-1.008.998.998 0 0 0-1.007-1.008h-.907c.343-4.882 2.458-7.766 4.553-10.53 1.873-2.48 3.646-4.82 3.585-8.229 0-.08-.02-.141-.04-.202h1.712s-.04.141-.04.202c-.04 3.409 1.712 5.749 3.585 8.23 2.095 2.763 4.21 5.647 4.552 10.529h-.825a.999.999 0 0 0-1.008 1.008.999.999 0 0 0 1.008 1.009Zm-82.163 76.99c.322-4.901 2.458-7.785 4.552-10.569 1.874-2.461 3.626-4.801 3.586-8.189.04-3.389-1.733-5.708-3.586-8.189-2.074-2.764-4.21-5.648-4.552-10.53h.907a.998.998 0 0 0 1.007-1.008.998.998 0 0 0-1.008-1.008h-.906c.343-4.882 2.458-7.766 4.552-10.53 1.874-2.46 3.626-4.8 3.586-8.189.04-3.388-1.733-5.708-3.586-8.189-2.095-2.763-4.21-5.648-4.552-10.529h.907a.998.998 0 0 0 1.007-1.008.998.998 0 0 0-1.008-1.009h-.906c.343-4.881 2.458-7.766 4.552-10.529 1.874-2.48 3.646-4.82 3.586-8.23 0-.08-.02-.14-.04-.201h1.712s-.04.141-.04.201c-.04 3.41 1.712 5.75 3.585 8.23 2.095 2.763 4.21 5.648 4.552 10.53h-.826a.998.998 0 0 0-1.007 1.008.998.998 0 0 0 1.007 1.008h.826c-.342 4.881-2.457 7.766-4.552 10.53-1.873 2.46-3.626 4.8-3.586 8.188-.04 3.389 1.733 5.709 3.586 8.19 2.095 2.763 4.21 5.647 4.552 10.529h-.826a.998.998 0 0 0-1.007 1.008.998.998 0 0 0 1.007 1.009h.826c-.342 4.881-2.457 7.765-4.552 10.529-1.873 2.46-3.626 4.8-3.586 8.189-.04 3.388 1.733 5.708 3.586 8.189 2.095 2.763 4.23 5.648 4.552 10.569H22.298ZM50.76 25.637c-.604-1.574-1.914-2.885-3.666-3.369a4.677 4.677 0 0 0-3.525.424c-1.088.605-1.853 1.593-2.196 2.803-.584 2.078.625 4.256 2.72 4.821.866.242 1.772.141 2.497-.282a.996.996 0 0 0 .363-1.372.993.993 0 0 0-1.37-.363c-.262.162-.584.182-.947.08a1.897 1.897 0 0 1-1.309-2.339 2.558 2.558 0 0 1 1.249-1.573 2.635 2.635 0 0 1 1.994-.242 3.547 3.547 0 0 1 2.458 4.357c-.685 2.48-3.264 3.933-5.761 3.247-1.128-.323-2.176-1.009-3.102-2.037-1.612-1.816-3.606-5.305-4.492-9.037 1.29 1.009 2.84 1.755 4.733 1.755 1.028 0 2.136-.222 3.324-.726 2.72-1.15 4.17-3.67 3.867-6.757-.18-1.755-.906-3.368-1.913-4.438H72.11c-4.27 2.058-7.352 5.85-8.681 10.247-.06-.484-.161-.928-.343-1.23-.685-1.19-1.752-3.752-2.095-3.53-.322.222-.04 2.44-.382 2.501-.343.06-.887-1.23-1.25-2.118-.382-.887-2.316-2.925-4.733-3.994-2.437-1.069-5.076-.262-5.66.767-.584 1.029.161 2.562 1.068 2.36.906-.202.624-1.19.624-1.19 0 .746-1.128 1.17-1.31.06-.2-1.11 2.519-2.44 3.707.424 1.189 2.864 2.578 2.38 3.928 2.28 1.35-.102 1.33 1.492 1.027 2.4-.302.907-2.095-1.251-2.034.08.06 1.331 2.457 2.925 3.364 3.53.14.1.282.222.423.343a8.576 8.576 0 0 0-5.278-.182c-1.45.424-2.719 1.23-3.746 2.3h.02Zm13.073 8.027c.16-.282.261-.605.382-.907.282.686.625 1.351.987 1.997h-2.195a5.45 5.45 0 0 0 .805-1.09h.02Zm21.633 65.05c.624 4.74 2.84 7.685 4.834 10.328 1.733 2.279 3.223 4.256 3.183 6.979.04 2.702-1.45 4.679-3.183 6.979-1.994 2.642-4.21 5.587-4.834 10.327-.624-4.74-2.84-7.685-4.834-10.327-1.733-2.28-3.223-4.256-3.183-6.979-.04-2.703 1.45-4.7 3.183-6.979 1.994-2.643 4.21-5.588 4.834-10.328Zm0-4.84c-.624-4.74-2.84-7.685-4.834-10.328-1.733-2.28-3.223-4.256-3.183-6.979-.04-2.703 1.45-4.68 3.183-6.979 1.994-2.642 4.21-5.587 4.834-10.327.624 4.74 2.84 7.685 4.834 10.327 1.733 2.28 3.223 4.256 3.183 6.98.04 2.702-1.45 4.679-3.183 6.978-1.994 2.642-4.21 5.587-4.834 10.328Zm0-39.494c-.624-4.74-2.84-7.685-4.834-10.328-1.733-2.279-3.223-4.256-3.183-6.979 0-.08-.02-.161-.04-.242h16.134s-.04.162-.04.242c.04 2.703-1.45 4.68-3.183 6.98-1.994 2.642-4.21 5.587-4.834 10.327h-.02ZM63.772 98.714c.625 4.74 2.84 7.685 4.834 10.328 1.733 2.279 3.223 4.256 3.183 6.979.04 2.702-1.45 4.679-3.183 6.979-1.994 2.642-4.21 5.587-4.834 10.327-.624-4.74-2.84-7.685-4.834-10.327-1.732-2.28-3.223-4.256-3.183-6.979-.04-2.703 1.45-4.7 3.183-6.979 1.994-2.643 4.21-5.588 4.834-10.328Zm0-4.84c-.624-4.74-2.84-7.685-4.834-10.328-1.732-2.28-3.223-4.256-3.183-6.979-.04-2.703 1.45-4.68 3.183-6.979 1.994-2.642 4.21-5.587 4.834-10.327.625 4.74 2.84 7.685 4.834 10.327 1.733 2.28 3.223 4.256 3.183 6.98.04 2.702-1.45 4.679-3.183 6.978-1.994 2.642-4.21 5.587-4.834 10.328Zm0-39.494c-.624-4.74-2.84-7.685-4.834-10.328-1.732-2.279-3.223-4.256-3.183-6.979 0-.08-.02-.161-.04-.242h16.134s-.04.162-.04.242c.04 2.703-1.45 4.68-3.183 6.98-1.994 2.642-4.21 5.587-4.834 10.327h-.02ZM42.078 98.714c.625 4.74 2.84 7.685 4.835 10.328 1.732 2.279 3.223 4.256 3.182 6.979.04 2.702-1.45 4.679-3.182 6.979-1.994 2.642-4.21 5.587-4.835 10.327-.624-4.74-2.84-7.685-4.834-10.327-1.732-2.28-3.223-4.256-3.182-6.979-.04-2.703 1.45-4.7 3.182-6.979 1.994-2.643 4.21-5.588 4.834-10.328Zm0-4.84c-.624-4.74-2.84-7.685-4.834-10.328-1.732-2.28-3.223-4.256-3.182-6.979-.04-2.703 1.45-4.68 3.182-6.979 1.994-2.642 4.21-5.587 4.834-10.327.625 4.74 2.84 7.685 4.835 10.327 1.732 2.28 3.223 4.256 3.182 6.98.04 2.702-1.45 4.679-3.182 6.978-1.994 2.642-4.21 5.587-4.835 10.328Zm0-39.494c-.624-4.74-2.84-7.685-4.834-10.328-1.732-2.279-3.223-4.256-3.182-6.979 0-.08-.02-.161-.04-.242h16.134s-.04.162-.04.242c.04 2.703-1.451 4.68-3.183 6.98-1.994 2.642-4.21 5.587-4.834 10.327h-.02Zm6.446 69.87c1.873-2.461 3.626-4.8 3.585-8.189.04-3.389-1.732-5.728-3.585-8.189-2.075-2.764-4.21-5.648-4.552-10.53h.906a.998.998 0 0 0 1.007-1.008.998.998 0 0 0-1.007-1.008h-.906c.342-4.881 2.457-7.766 4.552-10.53 1.873-2.46 3.626-4.8 3.585-8.189.04-3.388-1.732-5.708-3.585-8.189-2.095-2.763-4.21-5.647-4.552-10.529h.906a.998.998 0 0 0 1.007-1.008.998.998 0 0 0-1.007-1.009h-.906c.342-4.881 2.457-7.765 4.552-10.529 1.873-2.48 3.646-4.82 3.585-8.23 0-.08-.02-.14-.04-.201h1.712s-.04.141-.04.202c-.04 3.409 1.712 5.748 3.585 8.23 2.095 2.763 4.21 5.647 4.553 10.528h-.826a.998.998 0 0 0-1.007 1.009.998.998 0 0 0 1.007 1.008h.826c-.343 4.882-2.458 7.766-4.553 10.53-1.873 2.46-3.625 4.8-3.585 8.189-.04 3.388 1.732 5.708 3.585 8.189 2.095 2.763 4.21 5.648 4.553 10.529h-.826a.998.998 0 0 0-1.007 1.008.998.998 0 0 0 1.007 1.009h.826c-.343 4.881-2.458 7.765-4.553 10.529-1.873 2.461-3.625 4.8-3.585 8.189-.04 3.389 1.732 5.708 3.585 8.189 2.095 2.764 4.23 5.648 4.553 10.57H43.972c.322-4.902 2.457-7.786 4.552-10.57Zm21.694 0c1.873-2.461 3.626-4.8 3.585-8.189.04-3.389-1.732-5.728-3.585-8.189-2.095-2.764-4.21-5.648-4.552-10.53h.906a.998.998 0 0 0 1.007-1.008.998.998 0 0 0-1.007-1.008h-.906c.342-4.881 2.457-7.766 4.552-10.53 1.873-2.46 3.626-4.8 3.585-8.189.04-3.388-1.732-5.708-3.585-8.189-2.095-2.763-4.21-5.647-4.552-10.529h.906a.998.998 0 0 0 1.007-1.008.998.998 0 0 0-1.007-1.009h-.906c.342-4.881 2.457-7.765 4.552-10.529 1.873-2.48 3.646-4.82 3.585-8.23 0-.08-.04-.14-.06-.201h1.712s-.04.141-.04.202c-.04 3.409 1.712 5.748 3.585 8.23 2.095 2.763 4.21 5.647 4.552 10.528h-.826a.998.998 0 0 0-1.007 1.009.998.998 0 0 0 1.008 1.008h.825c-.342 4.882-2.457 7.766-4.552 10.53-1.873 2.46-3.626 4.8-3.585 8.189-.04 3.388 1.732 5.708 3.585 8.189 2.095 2.763 4.21 5.648 4.552 10.529h-.826a.998.998 0 0 0-1.007 1.008.998.998 0 0 0 1.008 1.009h.825c-.342 4.881-2.457 7.765-4.552 10.529-1.873 2.461-3.626 4.8-3.585 8.189-.04 3.389 1.732 5.708 3.585 8.189 2.095 2.764 4.23 5.648 4.552 10.57H65.645c.323-4.902 2.458-7.786 4.553-10.57h.02ZM90.34 15.753c-1.29-2.239-3.203-4.014-5.419-5.184h10.656c.241.162.584.283.584.283s-1.692.161-2.397.685c-.705.505-.866 1.372-.826 1.715.02.343.927-.605 1.249-.383.322.222-.04.504-.584 1.21-.564.726-.363 2.26-.464 2.743-.1.484.786-.242 1.733-.807.946-.564 2.477-2.52 1.792-1.593-.684.928-.201 1.613-.04 1.29.161-.322 1.49-1.008 2.155-1.673.625-.605 1.229-1.493 1.652-2.32.765.646 1.491 1.936 1.652 3.51.1 1.028.04 3.55-2.66 4.7-4.31 1.815-6.948-1.09-9.043-4.156l-.04-.02ZM38.916 10.57c.242.162.604.283.604.283s-1.692.161-2.397.685c-.705.505-.866 1.372-.826 1.715.02.343.927-.605 1.25-.383.342.222-.041.504-.585 1.21-.564.726-.363 2.26-.463 2.743-.1.484.785-.242 1.732-.807.947-.585 2.478-2.52 1.793-1.593-.685.928-.202 1.613-.04 1.29.16-.322 1.49-1.008 2.155-1.673.644-.646 1.289-1.574 1.712-2.441.826.585 1.632 1.936 1.793 3.61.1 1.03.04 3.57-2.66 4.7-4.31 1.836-6.949-1.089-9.043-4.155-1.29-2.239-3.203-4.014-5.419-5.184h10.414-.02Zm-7.473 5.063s.04.101.06.141c.141.182.282.424.444.666.08.121.16.242.261.383a11.01 11.01 0 0 1 1.189 2.925 9.08 9.08 0 0 1-.987 6.858 8.917 8.917 0 0 1-5.54 4.135c-3.746.948-7.573-1.331-8.54-5.083a5.447 5.447 0 0 1 3.928-6.596c1.067-.282 2.175-.1 3.122.464a4.17 4.17 0 0 1 1.893 2.542c.343 1.31-.241 2.642-1.309 3.348 0-.04.02-.06.02-.101 0-1.29-1.047-2.36-2.357-2.36a2.349 2.349 0 0 0-2.356 2.36c0 .666.282 1.25.705 1.674.08.162.201.303.362.383a4.326 4.326 0 0 0 3.163.424 5.132 5.132 0 0 0 3.142-2.34 5.03 5.03 0 0 0 .564-3.873 6.08 6.08 0 0 0-2.82-3.771c-1.41-.827-3.062-1.09-4.653-.686-3.968 1.008-6.385 5.063-5.378 9.036 1.229 4.841 6.143 7.786 10.978 6.556 3.807-.969 6.647-3.833 7.775-7.322 1.047 2.36 2.337 4.397 3.525 5.728 1.168 1.331 2.538 2.219 4.049 2.642a6.964 6.964 0 0 0 1.792.242c2.921 0 5.62-1.936 6.446-4.88.06-.182.06-.384.1-.566a.511.511 0 0 0 .101-.12 6.55 6.55 0 0 1 3.928-3.167 6.44 6.44 0 0 1 4.996.544 5.01 5.01 0 0 1 2.437 3.026 5.045 5.045 0 0 1-.423 3.852c-1.027 1.856-3.364 2.542-5.217 1.533-1.39-.766-1.893-2.521-1.148-3.913a2.033 2.033 0 0 1 1.208-.988c.524-.162.826-.746.645-1.27a.992.992 0 0 0-1.269-.646 4.087 4.087 0 0 0-2.357 1.936 4.91 4.91 0 0 0-.403 3.732c.182.625.484 1.19.867 1.694h-40.91c.483-.444.926-.948 1.228-1.452.423-.706.645-1.977.907-2.179.261-.201-.564-.504-1.209.262-.665.767.725-.907.967-1.835.242-.928.665-1.836.222-1.654-.423.181-1.974.282-2.478.887-.504.606-.645.989-.967.727-.322-.242.302-1.19-.04-1.15-.343.04-1.128.323-1.39 1.029s.12 2.198.12 2.198-.765-.907-.865-.524c-.04.14.201 1.008.261 1.452 0 .161.04.403.081.666-.644-1.271-1.208-2.582-1.55-3.974-1.995-7.846 2.779-15.874 10.614-17.85 4.633-1.19 9.347.645 12.066 4.275v-.02ZM8.803 34.754h-.504v-.968c.161.322.322.645.503.968Zm19.659 2.077s-.04.162-.04.242c.04 2.703-1.45 4.68-3.183 6.98-1.994 2.642-4.21 5.587-4.834 10.327-.625-4.74-2.84-7.685-4.835-10.328-1.732-2.279-3.223-4.256-3.182-6.979 0-.08-.02-.161-.04-.242h16.114Zm-8.057 22.39c.624 4.74 2.84 7.685 4.834 10.327 1.732 2.28 3.223 4.256 3.183 6.979.04 2.723-1.45 4.68-3.183 6.979-1.994 2.642-4.21 5.587-4.834 10.327-.625-4.74-2.84-7.685-4.835-10.327-1.732-2.28-3.223-4.256-3.182-6.98-.04-2.702 1.45-4.679 3.182-6.978 1.994-2.642 4.21-5.587 4.835-10.327Zm0 39.493c.624 4.74 2.84 7.685 4.834 10.328 1.732 2.279 3.223 4.276 3.183 6.979.04 2.702-1.45 4.679-3.183 6.979-1.994 2.642-4.21 5.587-4.834 10.327-.625-4.74-2.84-7.685-4.835-10.327-1.732-2.28-3.223-4.256-3.182-6.979-.04-2.703 1.45-4.7 3.182-6.979 1.994-2.643 4.21-5.588 4.835-10.328Zm18.43 38.102c.242.182.685.343.685.343s-1.692.162-2.397.686c-.705.504-.866 1.372-.826 1.715.02.343.927-.606 1.25-.384.342.222-.041.505-.585 1.211-.564.726-.363 2.259-.463 2.743-.1.484.785-.242 1.732-.807.947-.585 2.478-2.521 1.793-1.594-.685.928-.202 1.614-.04 1.291.16-.322 1.49-1.008 2.155-1.674.644-.645 1.289-1.573 1.712-2.44.826.585 1.632 1.936 1.793 3.61.1 1.029.04 3.57-2.66 4.7-4.29 1.815-6.908-1.049-9.003-4.095a13.51 13.51 0 0 0-4.814-4.901c-.242-.141-.504-.262-.745-.404h10.433-.02Zm56.642 0c.242.182.665.343.665.343s-1.692.162-2.397.686c-.705.504-.867 1.372-.826 1.715.02.343.926-.606 1.249-.384.342.222-.04.505-.585 1.211-.564.726-.362 2.259-.463 2.743-.1.484.786-.242 1.733-.807.946-.585 2.477-2.521 1.792-1.594-.685.928-.201 1.614-.04 1.291.161-.322 1.49-1.008 2.155-1.674.625-.605 1.229-1.492 1.652-2.319.765.645 1.49 1.936 1.652 3.509.1 1.029.04 3.57-2.66 4.7-4.29 1.815-6.928-1.049-9.003-4.095a13.519 13.519 0 0 0-4.814-4.901c-.242-.141-.504-.262-.746-.403h10.656l-.02-.021Zm6.869-13.796c-1.733-2.279-3.223-4.256-3.183-6.979-.04-2.723 1.45-4.7 3.183-6.979 1.994-2.643 4.209-5.587 4.834-10.328.624 4.741 2.84 7.685 4.834 10.328 1.732 2.279 3.223 4.276 3.183 6.979.04 2.703-1.451 4.679-3.183 6.979-1.994 2.642-4.21 5.587-4.834 10.327-.625-4.74-2.84-7.685-4.834-10.327Zm4.834-29.167c-.625-4.74-2.84-7.685-4.834-10.327-1.733-2.28-3.223-4.256-3.183-6.979-.04-2.703 1.45-4.68 3.183-6.979 1.994-2.642 4.209-5.587 4.834-10.327.624 4.74 2.84 7.685 4.834 10.327 1.732 2.28 3.223 4.256 3.183 6.979.04 2.723-1.451 4.68-3.183 6.979-1.994 2.642-4.21 5.587-4.834 10.327Zm0-39.493c-.625-4.74-2.84-7.685-4.834-10.328-1.733-2.28-3.223-4.256-3.183-6.979 0-.08-.02-.161-.04-.242h16.134s-.04.161-.04.242c.04 2.703-1.45 4.68-3.183 6.98-1.994 2.642-4.21 5.586-4.834 10.326h-.02Zm11.945-35.944c-.605-1.19-1.249-2.542-1.491-2.38-.322.221-.04 2.44-.383 2.5-.342.061-.886-1.23-1.249-2.117-.382-.888-2.316-2.925-4.733-3.994-2.417-1.069-5.076-.262-5.66.766-.584 1.03.161 2.562 1.067 2.36.907-.201.625-1.19.625-1.19 0 .747-1.128 1.17-1.31.06-.201-1.108 2.518-2.44 3.707.425 1.188 2.864 2.578 2.38 3.928 2.279 1.349-.101 1.329 1.492 1.027 2.4-.302.908-2.095-1.25-2.035.08.061 1.332 2.458 2.925 3.364 3.53.242.162.464.343.665.545-1.813-.766-3.807-.928-5.741-.363-1.45.424-2.719 1.23-3.746 2.3a5.577 5.577 0 0 0-3.666-3.369c-2.458-.686-5.036.746-5.72 3.227-.585 2.078.644 4.256 2.718 4.821.846.242 1.773.141 2.498-.282a.996.996 0 0 0 .363-1.372.994.994 0 0 0-1.37-.363c-.262.161-.604.182-.947.08a1.897 1.897 0 0 1-1.309-2.34 2.623 2.623 0 0 1 3.243-1.814 3.547 3.547 0 0 1 2.457 4.356 4.614 4.614 0 0 1-2.215 2.804 4.626 4.626 0 0 1-3.545.424c-1.128-.323-2.176-1.009-3.102-2.038-1.612-1.815-3.606-5.325-4.492-9.036 1.289 1.009 2.84 1.755 4.733 1.755 1.028 0 2.136-.222 3.324-.726 2.719-1.15 4.169-3.671 3.867-6.757-.181-1.755-.906-3.369-1.913-4.438h17v7.846l.041.02ZM15.691 10.589c-3.223 1.554-5.76 4.095-7.412 7.14v-7.14h7.412ZM5.056 38.063v95.507H3.263V38.062h1.793ZM7.07 133.57V38.062H8.3v-1.23h2.115s-.04.14-.04.201c-.04 3.409 1.712 5.749 3.585 8.23 2.095 2.763 4.21 5.647 4.552 10.529h-.826a.998.998 0 0 0-1.007 1.008.998.998 0 0 0 1.007 1.009h.826c-.342 4.88-2.457 7.765-4.552 10.529-1.873 2.46-3.626 4.8-3.585 8.189-.04 3.388 1.732 5.708 3.585 8.19 2.075 2.762 4.21 5.647 4.552 10.528h-.826a.998.998 0 0 0-1.007 1.009.998.998 0 0 0 1.007 1.008h.826c-.342 4.881-2.457 7.766-4.552 10.529-1.873 2.461-3.626 4.801-3.585 8.189-.04 3.389 1.732 5.709 3.585 8.19 2.095 2.763 4.23 5.647 4.552 10.569H8.3v-1.231H7.07v.061Zm1.229 3.247h7.553c-3.283 1.554-5.881 4.115-7.553 7.201v-7.201Zm55.554 23.136c.16-.282.262-.605.382-.908.282.686.625 1.352.987 1.997h-2.175c.302-.343.564-.686.786-1.089h.02Zm7.17-2.279c-.664.766.726-.908.967-1.836.242-.928.665-1.835.222-1.654-.423.182-1.974.283-2.478.888-.503.605-.644.988-.966.726-.323-.242.302-1.19-.04-1.15-.343.04-1.129.323-1.39 1.029-.262.706.12 2.198.12 2.198s-.765-.907-.866-.524c-.04.141.201 1.009.262 1.452.04.283.1.767.181 1.271-.805-1.432-1.45-2.945-1.873-4.559-1.994-7.846 2.78-15.874 10.615-17.85 2.981-.767 6.083-.303 8.742 1.27a11.676 11.676 0 0 1 3.304 2.965.41.41 0 0 0 .08.162c.1.141.222.322.343.484.684 1.049 1.249 2.198 1.55 3.449 1.23 4.841-1.712 9.763-6.526 10.993a7.014 7.014 0 0 1-5.317-.767 7.046 7.046 0 0 1-3.223-4.316 5.36 5.36 0 0 1 .604-4.115 5.38 5.38 0 0 1 3.324-2.481 4.13 4.13 0 0 1 3.122.464 4.171 4.171 0 0 1 1.893 2.542c.343 1.331-.262 2.682-1.37 3.388 0-.04.02-.08.02-.141a2.361 2.361 0 0 0-2.356-2.36 2.349 2.349 0 0 0-2.357 2.36c0 .686.302 1.291.786 1.715a.92.92 0 0 0 .342.342 4.312 4.312 0 0 0 3.163.424 5.132 5.132 0 0 0 3.142-2.34 5.027 5.027 0 0 0 .564-3.872 6.078 6.078 0 0 0-2.82-3.772 6.066 6.066 0 0 0-4.653-.686 7.286 7.286 0 0 0-4.552 3.409c-1.007 1.714-1.31 3.711-.826 5.627a8.926 8.926 0 0 0 4.13 5.547c2.074 1.23 4.511 1.594 6.848.988 3.807-.968 6.647-3.832 7.775-7.321 1.047 2.36 2.336 4.397 3.525 5.728 1.168 1.331 2.538 2.219 4.048 2.642a6.937 6.937 0 0 0 1.793.242c2.921 0 5.62-1.936 6.446-4.881.06-.181.06-.383.101-.565.04-.04.08-.08.1-.121a6.548 6.548 0 0 1 3.928-3.166c1.692-.485 3.465-.303 4.996.544a5.015 5.015 0 0 1 2.437 3.026c.383 1.291.221 2.662-.423 3.852a3.898 3.898 0 0 1-2.296 1.856c-.987.282-2.035.182-2.921-.323a2.838 2.838 0 0 1-1.37-1.714 2.801 2.801 0 0 1 .242-2.199 2.033 2.033 0 0 1 1.208-.988c.524-.162.826-.747.645-1.271a.992.992 0 0 0-1.269-.645 4.085 4.085 0 0 0-2.357 1.936 4.915 4.915 0 0 0-.403 3.732c.182.625.484 1.19.867 1.694h-40.75c.484-.444.947-.968 1.23-1.473.422-.706.644-1.976.906-2.178.262-.202-.564-.504-1.209.262l.04.061Zm38.05-22.874c.323-4.901 2.458-7.785 4.553-10.569 1.873-2.461 3.625-4.801 3.585-8.189.04-3.389-1.732-5.729-3.585-8.189-2.095-2.764-4.21-5.648-4.553-10.53h.907a.998.998 0 0 0 1.007-1.008.998.998 0 0 0-1.007-1.008h-.907c.343-4.882 2.458-7.766 4.553-10.53 1.873-2.46 3.625-4.8 3.585-8.189.04-3.388-1.732-5.708-3.585-8.189-2.095-2.763-4.21-5.648-4.553-10.529h.907a.998.998 0 0 0 1.007-1.008.998.998 0 0 0-1.007-1.009h-.907c.343-4.881 2.458-7.766 4.553-10.529 1.873-2.48 3.645-4.82 3.585-8.23 0-.08-.02-.14-.04-.201h1.974v1.23h1.228v95.507h-1.228v1.231h-10.052l-.02-.061Zm13.194-124.21v25.456h-1.128V10.589h1.128Zm-115.982 0v25.456H5.157V10.589h1.128Zm-3.143 0v25.456H2.014V10.589h1.128ZM2.014 165.983v-30.397h1.128v30.397H2.014Zm4.25 0H5.136v-30.397h1.128v30.397Zm2.015-5.91c.16.323.342.645.503.968H8.28v-.968Zm112.86 5.91v-30.397h1.128v30.397h-1.128Zm4.25 0h-1.128v-30.397h1.128v30.397Zm-1.229-32.414h-1.792V38.062h1.792v95.507Z"/>
</svg>
